<?xml version="1.0" encoding="UTF-8" standalone="no"?>
<!-- Created with Inkscape (http://www.inkscape.org/) -->

<svg
   xmlns:dc="http://purl.org/dc/elements/1.1/"
   xmlns:cc="http://creativecommons.org/ns#"
   xmlns:rdf="http://www.w3.org/1999/02/22-rdf-syntax-ns#"
   xmlns:svg="http://www.w3.org/2000/svg"
   xmlns="http://www.w3.org/2000/svg"
   xmlns:sodipodi="http://sodipodi.sourceforge.net/DTD/sodipodi-0.dtd"
   xmlns:inkscape="http://www.inkscape.org/namespaces/inkscape"
   version="1.1"
   id="svg2"
   width="49.333332"
   height="45.333332"
   viewBox="0 0 49.333332 45.333332"
   sodipodi:docname="homeIcon.svg"
   inkscape:version="0.92.5 (2060ec1f9f, 2020-04-08)">
  <metadata
     id="metadata8">
    <rdf:RDF>
      <cc:Work
         rdf:about="">
        <dc:format>image/svg+xml</dc:format>
        <dc:type
           rdf:resource="http://purl.org/dc/dcmitype/StillImage" />
        <dc:title></dc:title>
      </cc:Work>
    </rdf:RDF>
  </metadata>
  <defs
     id="defs6" />
  <sodipodi:namedview
     pagecolor="#ffffff"
     bordercolor="#666666"
     borderopacity="1"
     objecttolerance="10"
     gridtolerance="10"
     guidetolerance="10"
     inkscape:pageopacity="0"
     inkscape:pageshadow="2"
     inkscape:window-width="1920"
     inkscape:window-height="1016"
     id="namedview4"
     showgrid="false"
     inkscape:zoom="14.724459"
     inkscape:cx="25.957565"
     inkscape:cy="22.325404"
     inkscape:window-x="0"
     inkscape:window-y="27"
     inkscape:window-maximized="1"
     inkscape:current-layer="svg2" />
  <path
     style="fill:#ccc591;stroke-width:1.33333325"
     d="m 9.3333331,34.155507 c 0,-8.723152 -0.3037472,-9.923922 -2.6666666,-10.54184 C 2.027865,22.400594 3.7338652,19.378301 12.888943,12.590491 25.094671,3.5408502 24.619887,3.7216838 28.389361,6.6867513 c 4.214583,3.3151927 4.943971,3.3122296 4.943971,-0.020085 0,-1.7777777 0.88889,-2.6666666 2.666667,-2.6666666 2.214009,0 2.666667,0.8888889 2.666667,5.2365597 0,4.0581936 0.784128,5.8533546 3.484601,7.9775466 3.653594,2.873919 3.590514,6.785893 -0.109421,6.785893 -1.652076,0 -2.041847,1.908914 -2.041847,10 v 10 H 24.666666 9.3333331 Z m 9.3333329,0.511159 v -5.333334 h 6 6 v 5.333334 c 0,4.8 0.333333,5.333333 3.333333,5.333333 3.250473,0 3.333333,-0.24142 3.333333,-9.712035 V 20.57593 L 31.004182,15.841177 24.675031,11.106423 18.337516,15.837818 12,20.569213 v 9.715393 c 0,9.474197 0.08275,9.715393 3.333333,9.715393 3,0 3.333333,-0.533333 3.333333,-5.333333 z"
     id="path42"
     inkscape:connector-curvature="0" />
</svg>
