<?xml version="1.0" encoding="UTF-8" standalone="no"?>
<!-- Created with Inkscape (http://www.inkscape.org/) -->

<svg
   xmlns:dc="http://purl.org/dc/elements/1.1/"
   xmlns:cc="http://creativecommons.org/ns#"
   xmlns:rdf="http://www.w3.org/1999/02/22-rdf-syntax-ns#"
   xmlns:svg="http://www.w3.org/2000/svg"
   xmlns="http://www.w3.org/2000/svg"
   xmlns:sodipodi="http://sodipodi.sourceforge.net/DTD/sodipodi-0.dtd"
   xmlns:inkscape="http://www.inkscape.org/namespaces/inkscape"
   version="1.1"
   id="svg2"
   width="614.40002"
   height="345.60001"
   viewBox="0 0 614.40002 345.60001"
   sodipodi:docname="logo_sophia1.0.svg"
   inkscape:version="0.92.5 (2060ec1f9f, 2020-04-08)">
  <metadata
     id="metadata8">
    <rdf:RDF>
      <cc:Work
         rdf:about="">
        <dc:format>image/svg+xml</dc:format>
        <dc:type
           rdf:resource="http://purl.org/dc/dcmitype/StillImage" />
        <dc:title></dc:title>
      </cc:Work>
    </rdf:RDF>
  </metadata>
  <defs
     id="defs6" />
  <sodipodi:namedview
     pagecolor="#ffffff"
     bordercolor="#666666"
     borderopacity="1"
     objecttolerance="10"
     gridtolerance="10"
     guidetolerance="10"
     inkscape:pageopacity="0"
     inkscape:pageshadow="2"
     inkscape:window-width="1920"
     inkscape:window-height="1016"
     id="namedview4"
     showgrid="false"
     inkscape:zoom="1.3657407"
     inkscape:cx="301.73705"
     inkscape:cy="176.20359"
     inkscape:window-x="0"
     inkscape:window-y="27"
     inkscape:window-maximized="1"
     inkscape:current-layer="svg2" />
  <g
     id="g12"
     style="display:inline">
    <path
       style="display:inline;fill:#dddaa9;stroke-width:0.32000002"
       d="M 0,172.8 V 0 H 307.20001 614.40002 V 172.8 345.60001 H 307.20001 0 Z"
       id="path28"
       inkscape:connector-curvature="0" />
    <path
       style="display:inline;fill:#c7c498;stroke-width:0.32000002"
       d="M 0,172.8 V 0 H 307.20001 614.40002 V 172.8 345.60001 H 307.20001 0 Z m 82.87039,52.63714 c 7.474675,-1.07347 13.787492,-3.5268 18.26944,-7.1 6.86748,-5.47506 9.93682,-13.86216 8.9785,-24.5341 -0.61672,-6.86786 -2.52786,-11.72745 -6.17916,-15.7122 -2.89875,-3.16348 -3.2506,-3.05083 9.52876,-3.05083 12.20634,0 11.33207,-0.23389 11.33207,3.03157 0,4.83966 1.4995,13.15642 3.20709,17.78763 5.62619,15.25906 17.1602,25.36709 32.97748,28.90037 10.27485,2.29521 21.92355,1.69534 31.47577,-1.62091 9.05601,-3.14398 16.35227,-8.7232 21.47926,-16.42455 5.0709,-7.61709 7.65141,-15.61487 8.48546,-26.299 0.19643,-2.51631 0.50478,-4.75511 0.68523,-4.97511 0.46205,-0.56334 18.50324,-0.57848 19.06572,-0.016 0.29191,0.29191 0.384,6.20088 0.384,24.64 v 24.256 h 10.56 10.56 v -16.28082 c 0,-12.64203 0.0894,-16.35177 0.4,-16.59825 0.22313,-0.17707 3.79587,-0.40112 8.08,-0.50672 8.57844,-0.21143 11.97318,-0.53179 17.6325,-1.66397 6.00513,-1.20135 12.11608,-3.60188 16.1275,-6.33526 2.02406,-1.37919 5.01485,-4.27276 6.17572,-5.97498 0.54012,-0.792 1.13554,-1.5458 1.32316,-1.67511 0.61603,-0.42456 21.12579,-0.29222 21.55712,0.13911 0.2919,0.29191 0.384,6.20088 0.384,24.64 v 24.256 h 10.56 10.56 v -20.736 c 0,-15.70134 0.0933,-20.82924 0.384,-21.12 0.28989,-0.28988 4.95063,-0.384 19.01383,-0.384 10.2464,0 18.8576,0.0874 19.136,0.19423 0.45443,0.17438 0.50617,2.33364 0.50617,21.12 v 20.92577 h 10.56 10.56 v -24.256 c 0,-18.43912 0.0921,-24.34809 0.384,-24.64 0.28429,-0.28429 3.34221,-0.384 11.776,-0.384 8.4338,0 11.49172,0.0997 11.776,0.384 0.29191,0.29191 0.384,6.20088 0.384,24.64 v 24.256 h 10.56 10.56001 v -24.28082 c 0,-20.11775 0.0748,-24.34294 0.43651,-24.6431 0.31485,-0.26128 4.75203,-0.33912 15.91568,-0.27919 14.31565,0.0769 15.48707,0.12427 15.58454,0.63075 0.058,0.3012 -1.41715,4.58197 -3.27808,9.51283 -5.28966,14.01594 -13.93865,38.06339 -13.93865,38.75469 0,0.18711 4.18451,0.30484 10.83577,0.30484 h 10.83578 l 3.44128,-10.16 c 1.8927,-5.588 3.6439,-10.484 3.89158,-10.88 l 0.45034,-0.72 h 19.32646 c 10.62954,0 19.53965,0.0818 19.8002,0.18179 0.28806,0.11054 1.89769,4.37474 4.10617,10.87794 l 3.63242,10.69614 11.31424,0.002 c 10.17139,0.002 11.29469,-0.0489 11.12061,-0.50255 -0.1065,-0.27753 -1.47364,-4.12953 -3.03808,-8.56 -3.64791,-10.33086 -9.6442,-26.68335 -12.3368,-33.64385 -1.15498,-2.98565 -2.09997,-5.59825 -2.09997,-5.80576 0,-0.20752 0.22777,-0.46471 0.50617,-0.57154 0.2784,-0.10683 7.6224,-0.19424 16.32,-0.19424 10.32922,0 15.81383,-0.11098 15.81383,-0.32 0,-0.20918 -5.6936,-0.32 -16.44083,-0.32 -14.04823,0 -16.49741,-0.0682 -16.82983,-0.46874 -0.21395,-0.25782 -1.53913,-3.31782 -2.9448,-6.8 -4.73517,-11.73019 -10.56048,-25.17955 -16.29097,-37.6124 l -1.73357,-3.76115 -10.37955,0.0811 -10.37956,0.0811 -3.12797,6.72 c -3.86627,8.30617 -10.05244,22.72936 -14.20534,33.12 -1.72339,4.312 -3.27126,8.02 -3.43971,8.24 -0.43514,0.56838 -31.916,0.58388 -32.48387,0.016 -0.29181,-0.29182 -0.384,-6.12978 -0.384,-24.32 v -23.936 h -10.56001 -10.56 v 23.936 c 0,18.19022 -0.0922,24.02818 -0.384,24.32 -0.55056,0.55055 -23.00144,0.55055 -23.552,0 -0.2918,-0.29182 -0.384,-6.12978 -0.384,-24.32 v -23.936 h -10.56 -10.56 v 19.00576 c 0,17.03558 -0.0525,19.0259 -0.50617,19.2 -0.2784,0.10684 -8.8896,0.19424 -19.136,0.19424 -14.0632,0 -18.72394,-0.0941 -19.01383,-0.384 -0.28995,-0.28996 -0.384,-4.992 -0.384,-19.2 v -18.816 h -10.56 -10.56 v 23.936 c 0,18.19022 -0.0922,24.02818 -0.384,24.32 -0.28198,0.28198 -2.99219,0.384 -10.20083,0.384 -11.24553,0 -10.95424,0.0707 -9.89448,-2.40162 2.46211,-5.74386 3.16989,-15.01907 1.72691,-22.63043 -3.65867,-19.29834 -23.29591,-26.95132 -60.9276,-23.74439 -5.11412,0.43582 -11.16546,1.21537 -12.56,1.61802 -0.52667,0.15207 -0.56,1.53731 -0.56,23.27613 0,17.55123 -0.0924,23.20686 -0.384,23.49844 -0.43102,0.43101 -18.36533,0.56217 -19.01954,0.1391 -0.21079,-0.13632 -0.51819,-2.11744 -0.73162,-4.71511 -1.13119,-13.76748 -5.67655,-24.42059 -13.92915,-32.64622 -6.34384,-6.32309 -14.86552,-10.58698 -24.68821,-12.35293 -5.03231,-0.90473 -14.45762,-0.98959 -19.00748,-0.17113 -16.41406,2.95264 -28.09297,11.5441 -34.86804,25.65028 -3.02903,6.30664 -5.13197,15.13014 -5.13197,21.53265 0,3.18778 1.03497,2.94736 -12.68773,2.94736 h -12.02521 l -2.291399,-1.42817 c -4.087162,-2.54742 -11.048119,-5.58129 -22.115659,-9.63894 -6.71415,-2.46158 -10.829254,-5.21079 -12.395706,-8.28129 -0.9228,-1.80884 -1.100502,-4.79552 -0.409168,-6.87694 0.998423,-3.00596 3.259053,-4.88515 7.204874,-5.98919 1.717898,-0.48066 3.22202,-0.57785 8.640001,-0.55824 6.027113,0.0218 6.814518,0.0919 9.69319,0.86317 2.463111,0.6599 8.088221,2.73768 10.656468,3.93625 0.213094,0.0994 1.494129,-2.96652 3.279999,-7.85023 1.61169,-4.40737 2.93034,-8.13805 2.93034,-8.29038 0,-0.83331 -9.859603,-4.43067 -15.028295,-5.4832 -9.176915,-1.86875 -21.0508,-1.51055 -28.651703,0.86434 -9.035987,2.82328 -14.875271,7.6487 -18.372961,15.18289 -2.778681,5.98542 -3.297667,14.09467 -1.311296,20.48926 0.936711,3.0155 3.330912,6.8302 5.985809,9.53724 1.295241,1.32068 2.313321,2.61773 2.2624,2.88233 -0.08021,0.41681 -1.79161,0.49228 -12.80827,0.56477 -8.108961,0.0534 -12.715683,0.19827 -12.715683,0.4 0,0.20364 5.012936,0.31633 14.072122,0.31633 h 14.072122 l 2.967878,1.57087 c 2.897271,1.5335 7.678589,3.48886 16.087879,6.57928 10.986801,4.03766 15.071828,7.03968 16.345732,12.01222 1.207645,4.71389 -0.960378,9.19023 -5.419879,11.19049 -3.47302,1.55778 -4.937513,1.76822 -12.205853,1.75387 -9.298896,-0.0183 -13.83249,-0.90555 -22.340893,-4.37198 -1.727488,-0.7038 -3.19729,-1.22324 -3.266221,-1.15431 -0.06893,0.0689 -1.271415,3.35953 -2.672186,7.31244 -1.400768,3.95291 -2.699466,7.58327 -2.885987,8.06746 -0.334298,0.86778 -0.302266,0.89888 2.244656,2.17945 5.939581,2.98636 14.922986,5.14417 24.440631,5.87062 3.129203,0.23884 13.49274,-0.1397 16.790388,-0.61328 z m 85.11847,-18.23431 c -11.09213,-2.21212 -18.55372,-10.91275 -20.84292,-24.30401 -0.84164,-4.92345 -0.68676,-13.42429 0.32394,-17.77882 2.33131,-10.04429 7.05658,-16.76238 14.28526,-20.30987 3.77359,-1.8519 5.9548,-2.40847 10.32131,-2.63363 10.61134,-0.54718 19.10149,3.91927 24.14772,12.7035 3.12535,5.44045 5.08637,15.05957 4.59926,22.56001 -1.0919,16.81279 -8.76827,27.25786 -21.89157,29.78739 -2.86211,0.55167 -8.11268,0.53988 -10.943,-0.0246 z m 343.37116,-21.59718 c -0.5866,-0.37218 -0.49124,-0.66128 4.691,-14.22221 2.02266,-5.29289 4.83936,-12.71944 6.25933,-16.50344 1.41994,-3.784 2.709,-7.02076 2.86452,-7.1928 0.80787,-0.89369 1.20774,0.009 9.21465,20.7928 4.47056,11.60456 6.13399,16.52202 5.74679,16.98858 -0.31213,0.37608 -2.70461,0.45061 -14.33546,0.44653 -8.27645,-0.003 -14.15626,-0.12891 -14.44083,-0.30946 z M 264.06401,172.736 c -0.28721,-0.2872 -0.384,-3.98773 -0.384,-14.68081 0,-12.48775 0.0624,-14.34861 0.49318,-14.70613 0.34885,-0.28952 2.33889,-0.453 6.8,-0.5586 7.50598,-0.17769 12.18706,0.37263 16.14151,1.89762 5.91001,2.27915 9.05166,7.70247 8.40654,14.51192 -0.96489,10.18459 -7.7472,13.91636 -25.29723,13.9191 -4.06685,6.4e-4 -5.88963,-0.11272 -6.16,-0.3831 z"
       id="path26"
       inkscape:connector-curvature="0" />
    <path
       style="display:inline;fill:#b1af8d;stroke-width:0.32000002"
       d="M 0,172.8 V 0 H 307.20001 614.40002 V 172.8 345.60001 H 307.20001 0 Z m 81.955491,52.94516 c 14.99704,-1.85764 24.217179,-8.46555 27.515649,-19.71999 0.97883,-3.3398 1.2227,-11.70856 0.45976,-15.77729 -0.98917,-5.2752 -3.06794,-9.49544 -6.34755,-12.88655 -0.89137,-0.92167 -1.20923,-1.46344 -0.98828,-1.68439 0.2114,-0.2114 4.08077,-0.29609 11.02532,-0.24132 l 10.69961,0.0844 0.22752,3.36 c 1.1804,17.43222 7.64434,30.31711 19.43857,38.74789 12.47556,8.91782 31.76267,11.27039 48.01392,5.85657 13.14155,-4.37788 22.19271,-13.29616 27.39798,-26.99574 1.83075,-4.81831 3.3029,-12.64467 3.31577,-17.62756 0.01,-3.77377 -0.72049,-3.5257 10.08625,-3.42642 l 9.28,0.0853 0.16,24.48 0.16,24.48 h 10.72 10.72 l 0.16,-16.48 0.16,-16.48 3.04,-0.0731 c 7.33438,-0.17625 15.81451,-0.77142 19.36,-1.35877 12.69209,-2.10256 20.60204,-6.19796 26.17707,-13.55323 l 0.89706,-1.18353 10.62293,0.0843 10.62294,0.0843 0.16,24.48 0.16,24.48 h 10.72 10.72 l 0.16,-20.96 0.16,-20.96 18.88,-0.0834 c 17.46525,-0.0772 18.90999,-0.0426 19.28,0.46116 0.31021,0.42235 0.4,5.16501 0.4,21.12775 v 20.58315 l 10.64,-0.0843 10.64,-0.0843 0.16,-24.48 0.16,-24.48 h 11.68 11.68 l 0.16,24.48 0.16,24.48 h 10.72 10.72001 l 0.16,-24.48 0.16,-24.48 15.50089,-0.0831 c 8.52547,-0.0457 15.62122,0.0372 15.76829,0.18431 0.1471,0.14708 -0.82826,3.13648 -2.16742,6.64311 -4.65949,12.20101 -14.49501,39.36305 -15.04036,41.53586 l -0.21289,0.84821 11.11203,-0.0842 11.11203,-0.0842 3.56371,-10.40452 c 1.96004,-5.72248 3.68023,-10.58248 3.8226,-10.8 0.20086,-0.30682 4.62921,-0.39548 19.75264,-0.39548 h 19.49373 l 0.44224,0.72 c 0.24323,0.396 1.9918,5.292 3.88576,10.88 l 3.44352,10.16 h 11.26828 c 6.19754,0 11.35658,-0.0883 11.46452,-0.19624 0.10793,-0.10794 -0.006,-0.71994 -0.25261,-1.36 -0.24688,-0.64007 -2.34234,-6.49176 -4.65655,-13.00376 -2.3142,-6.512 -6.01091,-16.592 -8.21488,-22.4 -2.204,-5.808 -4.02486,-10.92 -4.0464,-11.36 l -0.0391,-0.8 16.16,-0.16 c 14.08,-0.13941 16.16,-0.22179 16.16,-0.64 0,-0.4194 -2.08608,-0.49047 -16.5232,-0.56287 -12.68528,-0.0636 -16.59834,-0.1751 -16.84669,-0.48 -0.17792,-0.21842 -1.50912,-3.34914 -2.95827,-6.95714 -5.20119,-12.94972 -16.3329,-38.35933 -17.75712,-40.53297 l -0.4895,-0.7471 h -10.22906 -10.22906 l -1.2456,2.48 c -3.36435,6.69828 -9.16169,19.96851 -15.41277,35.28 l -4.37654,10.72001 h -16.12611 -16.12611 l -0.16,-24.16001 -0.16,-24.16 h -10.72001 -10.72 l -0.16,24.16 -0.16,24.16001 h -11.68 -11.68 l -0.16,-24.16001 -0.16,-24.16 -10.64,-0.0843 -10.64,-0.0843 v 18.66315 c 0,14.42674 -0.0908,18.78677 -0.4,19.20775 -0.37001,0.50379 -1.81475,0.53835 -19.28,0.46116 l -18.88,-0.0834 -0.16,-19.04 -0.16,-19.04 h -10.72 -10.72 l -0.16,24.16 -0.16,24.16001 -10.00829,0.0846 c -8.12467,0.0687 -10.03923,0.004 -10.17269,-0.34385 -0.0904,-0.23564 0.13986,-1.1377 0.51175,-2.00457 2.66604,-6.21462 3.13929,-16.8073 1.09259,-24.45515 -3.38565,-12.65111 -13.8803,-19.6604 -32.88671,-21.96477 -9.47904,-1.14925 -29.50208,-0.34028 -39.09665,1.57958 l -1.92,0.38419 -0.16,23.36 -0.16,23.36001 -9.28,0.0853 c -10.74081,0.0987 -10.08,0.30684 -10.08,-3.17542 0,-1.19231 -0.22339,-3.76945 -0.49642,-5.72698 -2.64983,-18.99845 -13.92112,-33.28805 -30.65516,-38.8642 -13.53946,-4.51165 -29.16682,-3.59067 -41.27281,2.43235 -4.57476,2.27605 -7.61886,4.48115 -11.43406,8.28267 -8.54464,8.51399 -13.27746,19.63934 -14.29643,33.60632 l -0.24513,3.36001 -12.25679,0.0838 -12.256794,0.0838 -1.343206,-0.90447 c -3.731876,-2.51292 -8.924484,-4.88399 -18.463207,-8.43074 -9.060996,-3.36911 -11.656753,-4.6406 -14.113127,-6.91309 -2.433744,-2.25155 -3.150455,-3.71277 -3.159847,-6.44221 -0.0092,-2.66757 0.485319,-4.22943 1.84024,-5.81234 2.34928,-2.74461 6.245329,-3.82557 13.780884,-3.8235 7.242317,0.002 12.254484,1.08949 19.022964,4.12744 l 2.171113,0.97448 0.268016,-0.7116 c 0.147408,-0.39138 1.520424,-4.16222 3.051134,-8.37963 2.59012,-7.13627 2.74412,-7.69654 2.22075,-8.07924 -0.8436,-0.61685 -6.909884,-2.93195 -10.361618,-3.95434 -4.324384,-1.28086 -7.6397,-1.84006 -13.071005,-2.20473 -18.623412,-1.25038 -32.588824,4.75495 -38.255989,16.45064 -0.771712,1.59263 -1.644736,3.804 -1.940054,4.91416 -1.321424,4.96752 -1.136755,12.36611 0.421501,16.88692 1.117606,3.2424 3.770448,7.30889 6.432851,9.86078 1.082314,1.0374 1.84632,2.0077 1.697792,2.15623 -0.148531,0.14853 -5.952554,0.30775 -12.897831,0.35383 -10.974123,0.0728 -12.627776,0.14663 -12.627776,0.56378 0,0.41718 1.884444,0.50093 14.4,0.64 l 14.400001,0.16 4.32,2.1313 c 2.376,1.17222 6.192,2.79877 8.48,3.61454 7.582477,2.70348 10.207111,3.76235 13.600001,5.48671 6.252547,3.17771 8.483558,6.03333 8.475958,10.84895 -0.0088,5.56622 -2.958441,8.56038 -9.798522,9.94636 -3.318317,0.67238 -14.000842,0.48996 -18.301283,-0.31252 -3.475713,-0.64858 -9.141962,-2.44923 -12.469514,-3.96262 -1.44464,-0.65703 -2.601837,-1.01176 -2.751265,-0.84336 -0.299497,0.33752 -5.795376,15.90654 -5.795376,16.41746 0,0.74639 6.163341,3.35934 11.377201,4.82337 9.400272,2.63955 20.881844,3.39494 31.538289,2.07496 z m 86.068579,-18.71474 c -11.05514,-2.31217 -18.54979,-11.05076 -20.66548,-24.0955 -0.55952,-3.44979 -0.63258,-11.70682 -0.13302,-15.03362 1.16166,-7.73607 3.78149,-13.58965 8.09061,-18.07715 3.54196,-3.68859 8.32192,-6.26502 13.19912,-7.11441 3.39981,-0.59209 10.24185,-0.25477 13.08471,0.64511 9.7246,3.07821 16.0079,10.82334 18.2407,22.48446 0.72155,3.76844 0.9511,10.32596 0.50485,14.42184 -1.48978,13.67377 -7.96574,22.70781 -18.74555,26.1503 -1.83449,0.58584 -3.13793,0.73342 -7.2,0.81523 -2.728,0.0549 -5.59718,-0.0334 -6.37594,-0.19626 z m 343.42481,-22.47041 c 0.0949,-0.572 2.29165,-6.584 4.8816,-13.36001 2.58992,-6.776 5.62016,-14.74909 6.73389,-17.71798 1.11373,-2.96889 2.09763,-5.47068 2.1865,-5.55953 0.41155,-0.41154 1.08918,0.31079 1.61942,1.7262 0.31965,0.85322 2.27242,5.87131 4.33955,11.15131 5.15709,13.17272 9.01811,23.84141 8.81747,24.36427 -0.13763,0.35865 -2.69564,0.43574 -14.45913,0.43574 H 511.27627 Z M 264.21334,172.58667 c -0.11733,-0.11733 -0.21333,-6.67385 -0.21333,-14.57004 0,-13.37212 0.0384,-14.37248 0.56,-14.58667 0.308,-0.12647 4.16,-0.2242 8.56,-0.21716 9.09818,0.0146 11.23989,0.33043 15.09058,2.22569 2.81826,1.38711 5.18846,3.85078 6.23663,6.48258 0.62879,1.57879 0.73098,2.4048 0.72234,5.83893 -0.008,3.34043 -0.12523,4.29274 -0.70859,5.77532 -1.9661,4.99677 -6.11974,7.59361 -14.06047,8.79055 -3.17606,0.47874 -15.76637,0.68159 -16.18716,0.2608 z"
       id="path24"
       inkscape:connector-curvature="0" />
    <path
       style="display:inline;fill:#918f71;stroke-width:0.32000002"
       d="M 0,172.8 V 0 H 307.20001 614.40002 V 172.8 345.60001 H 307.20001 0 Z m 83.352508,52.958 c 14.852372,-2.28657 23.856202,-9.39133 26.559942,-20.95799 1.07377,-4.59361 0.92484,-12.13509 -0.3375,-17.0892 -0.77108,-3.02616 -2.7734,-6.84278 -4.92795,-9.39312 -1.07904,-1.27728 -1.87355,-2.46528 -1.76557,-2.64 0.12341,-0.19967 4.04856,-0.31768 10.5662,-0.31768 11.92787,0 11.03237,-0.26521 11.03237,3.26735 0,4.33302 1.07594,10.71969 2.63021,15.61265 4.43861,13.97308 14.62472,24.62131 27.95918,29.22763 16.41744,5.67131 36.1908,3.33025 48.84857,-5.78342 3.18545,-2.29354 8.22515,-7.49746 10.31008,-10.64603 5.02355,-7.58634 7.66774,-15.73352 8.53954,-26.31169 0.20699,-2.51157 0.51459,-4.74649 0.68357,-4.96649 0.43249,-0.5631 17.84263,-0.57823 18.40486,-0.016 0.29191,0.29191 0.384,6.20088 0.384,24.64 v 24.256 h 10.88 10.88 v -16.28082 c 0,-12.64115 0.0894,-16.35215 0.4,-16.59989 0.22683,-0.18095 3.86337,-0.39893 8.4,-0.50352 13.58119,-0.31312 21.32404,-1.81574 29.12,-5.65118 3.94207,-1.93941 7.07139,-4.27922 9.16007,-6.84905 0.87418,-1.07555 1.85988,-2.27954 2.19046,-2.67554 0.60024,-0.71904 0.61468,-0.72 10.80125,-0.72 7.50684,0 10.30163,0.10139 10.58422,0.384 0.2919,0.29191 0.384,6.20088 0.384,24.64 v 24.256 h 10.88 10.88 v -20.736 c 0,-15.70134 0.0933,-20.82924 0.384,-21.12 0.5544,-0.5544 37.0776,-0.5544 37.632,0 0.29075,0.29076 0.384,5.41866 0.384,21.12 v 20.736 h 10.88 10.88 v -24.256 c 0,-18.43912 0.0921,-24.34809 0.384,-24.64 0.28388,-0.28387 3.27111,-0.384 11.456,-0.384 8.1849,0 11.17213,0.10013 11.456,0.384 0.29191,0.29191 0.384,6.20088 0.384,24.64 v 24.256 h 10.88 10.88001 v -24.256 c 0,-18.43912 0.0921,-24.34809 0.384,-24.64 0.50585,-0.50584 30.51036,-0.55854 30.82211,-0.0541 0.11213,0.18143 -1.88416,5.90543 -4.43616,12.72 -4.10666,10.96585 -13.00995,35.65152 -13.00995,36.07197 0,0.087 5.10924,0.15816 11.35388,0.15816 h 11.35392 l 0.21488,-0.88 c 0.4569,-1.87105 6.60016,-19.47838 7.03389,-20.16 l 0.45818,-0.72 h 19.18 c 15.09766,0 19.26086,0.0865 19.55984,0.4066 0.2089,0.22364 1.97859,5.08364 3.93261,10.8 l 3.5528,10.3934 11.6,0.084 c 6.98886,0.0506 11.6,-0.0342 11.6,-0.21328 0,-0.79007 -11.4689,-32.54267 -15.78813,-43.71071 -1.21536,-3.14256 -1.63722,-4.59942 -1.41306,-4.88 0.24797,-0.31039 3.89549,-0.4 16.28036,-0.4 15.74749,0 15.96083,-0.009 15.96083,-0.64 0,-0.63161 -0.21498,-0.64007 -16.4,-0.6449 -9.02,-0.003 -16.56243,-0.1107 -16.76099,-0.24 -0.19856,-0.12931 -1.76055,-3.69111 -3.47111,-7.91511 -5.18675,-12.80797 -14.07616,-33.17339 -16.98976,-38.9231 L 536.62923,125.44 H 526.12357 515.6179 l -2.25718,4.72 c -4.30294,8.99788 -11.39568,25.47616 -16.56288,38.48 -1.01405,2.552 -1.98605,4.82001 -2.15997,5.04001 -0.44918,0.56819 -31.28617,0.58368 -31.85385,0.016 -0.29181,-0.29183 -0.384,-6.12978 -0.384,-24.32001 V 125.44 h -10.88001 -10.88 v 23.936 c 0,18.19023 -0.0922,24.02818 -0.384,24.32001 -0.28387,0.28386 -3.2711,0.384 -11.456,0.384 -8.18489,0 -11.17212,-0.10014 -11.456,-0.384 -0.2918,-0.29183 -0.384,-6.12978 -0.384,-24.32001 V 125.44 h -10.88 -10.88 v 18.816 c 0,14.208 -0.0941,18.91005 -0.384,19.2 -0.5544,0.5544 -37.0776,0.5544 -37.632,0 -0.28995,-0.28995 -0.384,-4.992 -0.384,-19.2 V 125.44 h -10.88 -10.88 v 23.936 c 0,18.19023 -0.0922,24.02818 -0.384,24.32001 -0.2815,0.2815 -2.932,0.384 -9.93005,0.384 -7.94735,0 -9.57521,-0.076 -9.72026,-0.45402 -0.0958,-0.24971 0.18722,-1.456 0.62897,-2.68064 2.71785,-7.53451 2.78702,-18.41583 0.16475,-25.91528 -3.95993,-11.32501 -14.26663,-17.70048 -32.27941,-19.96724 -4.28798,-0.5396 -20.24768,-0.53465 -26.56,0.008 -4.49045,0.3862 -13.01753,1.49554 -14.16,1.84215 -0.5266,0.15977 -0.56,1.54865 -0.56,23.28434 0,17.55123 -0.0924,23.20686 -0.384,23.49843 -0.56207,0.56207 -17.96575,0.54695 -18.4214,-0.016 -0.17808,-0.22 -0.41993,-1.768 -0.53746,-3.44 -1.0086,-14.3484 -5.8163,-25.58282 -14.55235,-34.00523 -7.61836,-7.34485 -16.7446,-11.39962 -28.57218,-12.69456 -17.17091,-1.87994 -33.80888,4.21022 -43.58874,15.95521 -4.80009,5.76459 -8.44353,12.98078 -10.1293,20.06201 -0.8219,3.45245 -1.56146,8.76262 -1.56871,11.26361 -0.0103,3.54512 1.07758,3.25896 -12.38931,3.25896 h -11.72092 l -2.907816,-1.73329 c -4.330061,-2.58106 -9.887306,-5.0435 -18.107821,-8.02368 -8.74371,-3.16985 -12.391527,-5.07639 -14.560081,-7.60986 -2.271421,-2.65365 -2.65121,-6.66897 -0.929917,-9.83156 1.895498,-3.48265 6.476541,-5.09997 14.488929,-5.11528 6.28839,-0.012 12.390576,1.33458 18.246135,4.02643 1.300787,0.59798 2.531805,1.08723 2.735597,1.08723 0.370432,0 6.264774,-15.69995 6.261224,-16.67715 -0.004,-1.01028 -10.12669,-4.81342 -15.521887,-5.83145 -6.961888,-1.31367 -16.854925,-1.47551 -23.040001,-0.37693 -16.116125,2.86252 -25.740509,12.5866 -26.609889,26.88553 -0.503129,8.27515 1.888253,14.9363 7.307863,20.35591 1.21759,1.21759 2.12615,2.35562 2.019027,2.52895 -0.122521,0.19824 -4.876538,0.31515 -12.815888,0.31515 -12.407781,0 -12.621114,0.0108 -12.621114,0.64 0,0.63028 0.213333,0.64 14.051351,0.64 h 14.051351 l 3.788649,1.88854 c 3.988,1.98791 7.79344,3.53416 14.66865,5.96026 2.288,0.80737 5.953546,2.3399 8.145658,3.4056 3.233219,1.57185 4.356192,2.30842 5.948394,3.90162 2.494909,2.49648 3.170262,4.28737 2.957792,7.84345 -0.286403,4.79353 -2.64865,7.24176 -8.571843,8.88384 -2.630109,0.72914 -13.019626,0.82181 -17.440001,0.15555 -3.879405,-0.58472 -9.606714,-2.2554 -13.293098,-3.87766 -1.664797,-0.73263 -3.231975,-1.35661 -3.482621,-1.38662 -0.320141,-0.0384 -1.339299,2.42062 -3.425728,8.26542 -1.633504,4.576 -2.976429,8.43713 -2.984282,8.58029 -0.02291,0.41798 5.631709,2.96097 9.008234,4.05118 3.769831,1.2172 9.281248,2.39742 13.377495,2.86467 1.672,0.19073 3.544,0.40477 4.16,0.47566 2.683485,0.30881 14.739265,-0.10065 18.072506,-0.61381 z m 84.861622,-18.90822 c -10.38963,-1.87734 -17.76463,-9.93112 -20.4337,-22.31438 -0.58117,-2.6964 -0.70498,-4.32689 -0.72099,-9.49539 -0.0167,-5.40134 0.0807,-6.6916 0.72493,-9.60001 3.15712,-14.25286 11.73551,-22.27182 24.53564,-22.93558 9.30298,-0.48241 17.40852,3.34092 22.27485,10.50691 3.87607,5.70776 5.7548,12.7631 5.78071,21.70868 0.0322,11.11139 -2.92234,19.7963 -8.70004,25.574 -5.6954,5.6954 -14.54214,8.16742 -23.4614,6.55577 z m 343.53603,-21.64641 c -0.38189,-0.46143 0.0847,-1.7776 7.85725,-22.16337 2.81837,-7.392 5.22397,-13.77218 5.34579,-14.17819 0.50067,-1.66864 1.22407,-0.51106 3.76096,6.01819 1.40186,3.608 3.55632,9.152 4.78765,12.32 3.63098,9.34173 6.3864,17.11347 6.27418,17.69649 -0.0962,0.49978 -1.21453,0.55022 -13.89831,0.62688 -10.78864,0.0652 -13.86643,-0.005 -14.12752,-0.32 z M 264.40001,172.44921 c -0.6265,-0.65345 -0.57611,-28.22468 0.0525,-28.74641 0.28622,-0.23754 2.49133,-0.44491 6,-0.56424 13.27635,-0.45152 20.52809,2.00183 23.40701,7.91887 2.34372,4.81707 1.52272,12.40593 -1.74358,16.11665 -1.73459,1.97059 -5.47705,3.76983 -9.71597,4.67107 -4.05487,0.86212 -17.32561,1.30747 -18,0.60406 z"
       id="path22"
       inkscape:connector-curvature="0" />
    <path
       style="display:inline;fill:#807e6c;stroke-width:0.32000002"
       d="M 0,172.8 V 0 H 307.20001 614.40002 V 172.8 345.60001 H 307.20001 0 Z m 81.955491,53.25844 c 15.030349,-1.83459 24.504299,-8.6539 27.835289,-20.03571 0.52825,-1.80499 0.72122,-3.51795 0.8407,-7.46272 0.17639,-5.82403 -0.29017,-9.43512 -1.71609,-13.28203 -0.94759,-2.55648 -3.32115,-6.3652 -4.87199,-7.81784 -1.93077,-1.80853 -1.99554,-1.79687 9.47185,-1.70451 l 10.47526,0.0844 0.38608,4.65814 c 1.36553,16.47519 7.71747,28.75452 19.24242,37.19871 12.40972,9.09244 31.99812,11.56528 48.381,6.10761 6.8627,-2.28619 12.10066,-5.5012 17.13778,-10.51901 8.13874,-8.10755 13.13874,-19.96284 13.76831,-32.64545 0.0961,-1.936 0.24029,-3.844 0.32042,-4.24 l 0.14568,-0.72 h 9.2739 9.27391 v 24.256 c 0,18.43911 0.0921,24.34808 0.384,24.64 0.28296,0.28296 3.12889,0.384 10.816,0.384 7.68711,0 10.53304,-0.10104 10.816,-0.384 0.28859,-0.28859 0.384,-4.42311 0.384,-16.64 v -16.256 l 3.28,-0.008 c 13.28578,-0.0309 23.47629,-1.49675 31.07018,-4.46915 5.97588,-2.33909 10.78363,-5.80072 13.84097,-9.96565 l 1.14336,-1.55755 h 10.53275 10.53274 v 24.256 c 0,18.43911 0.0921,24.34808 0.384,24.64 0.54963,0.54962 21.08237,0.54962 21.632,0 0.29075,-0.29077 0.384,-5.41867 0.384,-21.12 v -20.736 h 18.88 c 10.384,0 18.91338,0.036 18.95421,0.08 0.0408,0.044 0.1488,9.512 0.24,21.04 l 0.16579,20.96 10.52189,0.0844 c 7.49815,0.0602 10.64778,-0.0201 10.96,-0.27918 0.36378,-0.30192 0.43811,-4.48338 0.43811,-24.64443 v -24.28081 h 11.52 11.52 v 24.256 c 0,18.43911 0.0921,24.34808 0.384,24.64 0.54964,0.54962 21.08237,0.54962 21.63201,0 0.2919,-0.29192 0.384,-6.20089 0.384,-24.64 v -24.256 h 15.34112 c 8.4376,0 15.40124,0.108 15.47475,0.24 0.0735,0.132 -1.76637,5.28 -4.08864,11.44 -6.12205,16.23921 -13.34928,36.65671 -13.15485,37.16339 0.23565,0.61411 22.02301,0.64956 22.5015,0.0366 0.17172,-0.22 1.1257,-2.848 2.11991,-5.84 0.99424,-2.992 2.58355,-7.672 3.53184,-10.4 l 1.72416,-4.96 h 19.6351 19.63511 l 3.5607,10.4 c 1.9584,5.72 3.72807,10.58 3.93261,10.8 0.28394,0.30536 2.99987,0.39884 11.4793,0.3951 6.10905,-0.003 11.28089,-0.11518 11.49292,-0.24996 0.28064,-0.17836 -0.60192,-3.02917 -3.24281,-10.4751 -4.65338,-13.12005 -7.73351,-21.54859 -11.18135,-30.59685 -1.51875,-3.98574 -2.76137,-7.40574 -2.76137,-7.6 0,-0.25287 4.53347,-0.35319 15.96083,-0.35319 13.79699,0 16.01482,-0.0651 16.35917,-0.48 0.31664,-0.38154 0.31715,-0.57788 0.003,-0.95714 -0.33987,-0.40955 -2.73274,-0.48888 -16.89027,-0.56 l -16.49514,-0.0829 -3.31331,-8.16001 c -4.37677,-10.77897 -8.90477,-21.28238 -13.61907,-31.59159 -3.00996,-6.58215 -3.99696,-8.45322 -4.52727,-8.58234 -0.37299,-0.0908 -5.14214,-0.12483 -10.59814,-0.0756 l -9.92,0.0895 -1.99501,4 c -3.63082,7.27987 -13.59962,30.41792 -18.16423,42.16 l -0.90188,2.32001 H 478.66946 462.72002 V 149.824 c 0,-18.19022 -0.0922,-24.02818 -0.384,-24.32 -0.54964,-0.54962 -21.08237,-0.54962 -21.63201,0 -0.2918,0.29182 -0.384,6.12978 -0.384,24.32 v 23.93601 h -11.52 -11.52 v -23.96082 c 0,-19.8902 -0.0744,-24.02259 -0.43811,-24.32443 -0.31222,-0.25912 -3.46185,-0.33935 -10.96,-0.27918 l -10.52189,0.0844 -0.16633,19.04 c -0.0915,10.472 -0.19952,19.076 -0.24,19.12 -0.0405,0.044 -8.56967,0.08 -18.95367,0.08 h -18.88 v -18.816 c 0,-14.208 -0.094,-18.91004 -0.384,-19.2 -0.28297,-0.28296 -3.12889,-0.384 -10.816,-0.384 -7.6871,0 -10.53302,0.10104 -10.816,0.384 -0.29181,0.29182 -0.384,6.12978 -0.384,24.32 v 23.93601 h -9.92 c -5.80215,0 -9.92,-0.12183 -9.92,-0.29347 0,-0.16141 0.29856,-0.98942 0.66346,-1.84 2.59957,-6.05957 3.0821,-16.47086 1.12157,-24.19948 -4.20711,-16.58494 -21.4002,-24.21467 -51.65918,-22.92465 -10.29242,0.43879 -21.63108,1.7286 -22.65319,2.57688 -0.35626,0.29567 -0.43266,4.44905 -0.43266,23.5199 v 23.16082 h -9.24577 c -10.50622,0 -9.63017,0.27136 -9.64048,-2.98618 -0.009,-2.95789 -0.8106,-8.41551 -1.7796,-12.12162 -5.46911,-20.91779 -21.54759,-33.98247 -43.57899,-35.41042 -12.26262,-0.7948 -23.92014,2.16049 -32.99901,8.36555 -3.54083,2.42002 -9.138,8.11608 -11.5338,11.73756 -5.25973,7.95061 -7.90317,15.81249 -8.74719,26.0151 l -0.364,4.40001 H 111.94638 99.861597 L 97.8508,172.45953 c -3.636471,-2.35187 -9.570349,-4.99016 -19.130797,-8.50585 -7.184215,-2.64186 -10.490222,-4.28458 -12.715047,-6.31794 -2.240733,-2.04791 -2.949277,-3.55211 -2.956141,-6.27574 -0.0069,-2.75873 0.403379,-4.09865 1.729664,-5.64812 2.23199,-2.60758 6.023232,-3.62547 13.518368,-3.62946 7.319156,-0.004 11.576871,0.88589 18.400231,3.84535 2.024324,0.87799 2.871386,1.1101 3.073428,0.84214 0.153404,-0.20345 1.605364,-4.02045 3.226574,-8.48222 2.22381,-6.12018 2.86129,-8.21637 2.59595,-8.53609 -0.99241,-1.19577 -11.794621,-4.8905 -16.806323,-5.74834 -6.80418,-1.16465 -17.069255,-1.15754 -22.749495,0.0157 -12.775021,2.63875 -21.097899,9.32064 -24.489492,19.661 -0.874922,2.66747 -1.016371,3.60521 -1.154295,7.65242 -0.176624,5.18274 0.183364,7.98897 1.440288,11.22758 1.061124,2.7341 3.75728,6.76724 5.982465,8.94907 0.981104,0.96198 1.783824,1.86198 1.783824,2 0,0.13801 -5.598369,0.25093 -12.44082,0.25093 -10.668119,0 -12.49758,0.0684 -12.839181,0.48 -0.31782,0.38295 -0.31782,0.57704 0,0.96 0.343023,0.41331 2.348439,0.48 14.435575,0.48 h 14.03721 l 4.563606,2.2166 c 2.509988,1.21914 6.43561,2.88167 8.72361,3.69453 14.457997,5.1365 19.163722,7.80207 21.048849,11.92316 0.9092,1.9876 0.969174,5.657 0.128093,7.83678 -1.149069,2.97797 -4.620452,5.21107 -9.392516,6.04209 -3.336992,0.58111 -14.850788,0.18304 -18.70392,-0.64665 -3.468161,-0.7468 -9.813674,-2.85755 -12.150465,-4.04169 -0.851821,-0.43166 -1.74641,-0.78482 -1.987974,-0.78482 -0.523741,0 -6.433133,16.47689 -6.162413,17.18237 0.195225,0.50875 4.263123,2.46336 7.700346,3.69999 9.710032,3.49344 23.247847,4.7388 35.395489,3.25607 z m 86.068579,-19.36636 c -7.65537,-1.50195 -13.90684,-6.56397 -17.47607,-14.15093 -1.32864,-2.82422 -2.54806,-6.9961 -3.00482,-10.28013 -0.50709,-3.64581 -0.42865,-12.078 0.14343,-15.4191 2.01791,-11.78511 8.16791,-19.83664 17.5934,-23.03313 3.42484,-1.16147 10.1437,-1.45597 14.27134,-0.62554 3.32776,0.6695 7.816,2.75601 10.28777,4.78259 5.46495,4.48069 9.13722,12.11886 10.13694,21.08443 1.54839,13.88606 -2.30061,26.31894 -10.13694,32.7439 -2.38453,1.95506 -6.94779,4.10478 -10.06562,4.74185 -2.67145,0.54586 -9.31302,0.63408 -11.74943,0.15606 z m 343.65595,-21.87701 c 0,-0.54338 1.09936,-3.52179 8.02134,-21.73145 6.03575,-15.8782 5.65149,-14.92362 6.00733,-14.92362 0.1553,0 0.89962,1.62 1.65405,3.6 0.75443,1.98 2.48566,6.408 3.84717,9.84 2.71872,6.85319 8.13116,21.40638 8.47952,22.80001 l 0.21996,0.88 h -14.11468 c -12.12986,0 -14.11469,-0.0654 -14.11469,-0.46494 z M 264.32001,158.10303 v -14.37697 l 1.77278,-0.2215 c 0.97502,-0.12182 4.89902,-0.14982 8.72,-0.0622 5.69184,0.1305 7.39906,0.28059 9.44768,0.83061 5.03881,1.35284 8.39639,3.95892 9.87214,7.66253 0.62265,1.56262 0.72556,2.3987 0.71695,5.82452 -0.009,3.41239 -0.11919,4.27824 -0.753,5.89402 -2.47535,6.31044 -9.10078,8.81997 -23.29655,8.8241 l -6.48,0.002 z"
       id="path20"
       inkscape:connector-curvature="0" />
    <path
       style="display:inline;fill:#605f4f;stroke-width:0.32000002"
       d="M 0,172.8 V 0 H 307.20001 614.40002 V 172.8 345.60001 H 307.20001 0 Z m 82.834943,53.26557 c 9.728049,-1.41596 16.231403,-4.39287 21.249157,-9.72677 5.28919,-5.62244 7.57735,-13.51206 6.64318,-22.90581 -0.64085,-6.44421 -2.42178,-11.03231 -5.93612,-15.29291 -0.96314,-1.16766 -1.75116,-2.20082 -1.75116,-2.29591 0,-0.0951 4.716,-0.13494 10.48,-0.0885 l 10.48,0.0844 0.21634,3.52 c 1.51312,24.61973 15.36758,41.6446 37.62005,46.22888 14.58107,3.00387 30.36297,0.28184 41.36108,-7.13389 3.25896,-2.19743 8.15553,-7.01505 10.56385,-10.39352 5.34397,-7.49671 8.38251,-16.47598 9.27927,-27.42147 0.20188,-2.464 0.47386,-4.59033 0.6044,-4.72517 0.13054,-0.13484 4.25982,-0.20684 9.17618,-0.16 l 8.93884,0.0852 0.16,24.48 0.16,24.48 h 11.04 11.04 l 0.16,-16.48 0.16,-16.48 7.2,-0.20224 c 3.96,-0.11123 8.784,-0.37239 10.72,-0.58036 14.20959,-1.52644 24.67908,-6.22434 29.92491,-13.42799 l 1.42583,-1.95797 10.40462,0.0843 10.40464,0.0843 0.16,24.48 0.16,24.48 h 11.04 11.04 l 0.16,-20.96 0.16,-20.96 h 18.72 18.72 l 0.16,20.96 0.16,20.96 h 11.04 11.04 l 0.16,-24.48 0.16,-24.48 h 11.36 11.36 l 0.16,24.48 0.16,24.48 h 11.04 11.04001 l 0.16,-24.48 0.16,-24.48 15.28,-0.0831 c 10.72313,-0.0583 15.28,0.0194 15.28,0.26045 0,0.18895 -2.00653,5.69834 -4.45892,12.2431 -8.65404,23.09512 -13.27126,36.34969 -12.7342,36.55578 0.2182,0.0837 5.41628,0.11434 11.55123,0.068 l 11.15446,-0.0842 3.56371,-10.40452 c 1.96004,-5.72248 3.68023,-10.58248 3.8226,-10.8 0.20076,-0.3067 4.56329,-0.39548 19.43264,-0.39548 h 19.17373 l 0.44163,0.72 c 0.24288,0.396 1.92441,5.112 3.73673,10.48 1.81229,5.368 3.43453,9.94 3.60493,10.16 0.39741,0.5131 23.11783,0.58744 23.43351,0.0767 0.27958,-0.45234 -8.75421,-25.85885 -14.7336,-41.43667 -1.35114,-3.52 -2.47728,-6.616 -2.50253,-6.88 -0.0401,-0.41904 2.00662,-0.50033 16.11408,-0.64 l 16.16,-0.16 v -0.8 -0.8 l -16.5232,-0.0829 c -12.68227,-0.0636 -16.59943,-0.17517 -16.85123,-0.48 -0.18042,-0.21842 -1.07258,-2.26455 -1.98256,-4.54695 -5.54634,-13.91111 -17.79322,-41.88297 -18.95556,-43.29445 -0.25856,-0.314 -2.69756,-0.38545 -10.92425,-0.32 l -10.59136,0.0843 -2.62996,5.6 c -4.69411,9.99524 -10.07228,22.53306 -16.33465,38.08 l -1.86903,4.64001 H 478.7091 462.88002 l -0.16,-24.16001 -0.16,-24.16 h -11.04001 -11.04 l -0.16,24.16 -0.16,24.16001 h -11.36 -11.36 l -0.16,-24.16001 -0.16,-24.16 h -11.04 -11.04 l -0.16,19.04 -0.16,19.04 h -18.72 -18.72 l -0.16,-19.04 -0.16,-19.04 h -11.04 -11.04 l -0.16,24.16 -0.16,24.16001 -9.68,0.0847 c -7.31547,0.064 -9.68,-0.008 -9.68,-0.29595 0,-0.20934 0.34911,-1.39946 0.7758,-2.64469 1.75975,-5.1356 2.43976,-11.71772 1.81099,-17.52921 -1.52859,-14.12816 -8.52585,-21.97297 -23.45889,-26.3004 -8.80408,-2.55132 -21.00978,-3.24724 -36.7279,-2.09407 -4.87996,0.35802 -13.87174,1.51823 -14.95791,1.93002 l -0.71791,0.27217 -0.0821,23.28872 -0.0821,23.28872 -8.93884,0.0852 c -4.91636,0.0468 -9.05566,-0.0317 -9.19845,-0.17445 -0.14279,-0.14279 -0.40995,-2.11105 -0.5937,-4.37391 -1.06639,-13.13237 -5.42462,-23.6071 -13.21102,-31.75181 -8.25454,-8.6344 -18.23175,-13.08473 -31.90262,-14.23014 -14.78038,-1.23836 -29.46845,3.71388 -39.02579,13.15797 -4.32457,4.27331 -7.15934,8.31098 -9.77802,13.92717 -3.015,6.46615 -4.48113,12.89629 -5.03445,22.08 l -0.0771,1.28001 -11.90771,0.0839 -11.90772,0.0839 -1.692285,-1.08145 c -3.956375,-2.52833 -10.276916,-5.36028 -19.861908,-8.89922 -7.069072,-2.61002 -9.672528,-3.84186 -11.988212,-5.67231 -2.231651,-1.76401 -3.314973,-3.68539 -3.520323,-6.24365 -0.29785,-3.71056 1.31073,-6.64117 4.44353,-8.09554 2.785904,-1.29332 4.614394,-1.53692 11.314631,-1.5074 5.846118,0.0258 6.672646,0.10099 9.550403,0.86928 1.732723,0.4626 4.756723,1.50898 6.72,2.32531 1.96328,0.81632 3.834836,1.50515 4.159018,1.53072 0.488621,0.0385 1.101956,-1.34895 3.586506,-8.11351 1.6484,-4.488 3.00316,-8.39514 3.01058,-8.68253 0.0226,-0.87615 -6.249342,-3.54934 -12.146507,-5.177 -8.221488,-2.26918 -20.155911,-2.68738 -28.320001,-0.99237 -13.009312,2.70097 -21.824221,10.43524 -24.550647,21.54092 -0.536019,2.1834 -0.671747,3.70831 -0.657856,7.39098 0.02083,5.52049 0.649878,8.37021 2.677997,12.13185 1.435997,2.66341 4.355501,6.46148 5.587149,7.26848 0.430845,0.28231 0.783357,0.71105 0.783357,0.95276 0,0.36376 -2.16417,0.45391 -12.560001,0.5232 l -12.56,0.0837 v 0.8 0.8 l 14.56,0.16 14.560001,0.16 2.444793,1.36083 c 2.865837,1.59519 6.924881,3.3148 12.275207,5.20037 15.444215,5.44287 19.817521,8.80209 19.78705,15.1988 -0.02406,5.05336 -2.689766,7.94071 -8.747049,9.47438 -2.676052,0.67756 -14.594916,0.57662 -18.560001,-0.15718 -3.498,-0.64736 -9.629549,-2.59632 -13.12,-4.1703 -1.391805,-0.62762 -2.524234,-0.96488 -2.695735,-0.80284 -0.628634,0.59393 -6.16576,16.77771 -5.912951,17.28221 0.372836,0.74402 6.61242,3.39404 10.848686,4.60755 4.426221,1.26793 10.20511,2.31832 14.926807,2.71315 4.603945,0.38498 14.064941,0.13621 18.308134,-0.48141 z m 85.165067,-19.48969 c -10.46913,-2.24494 -17.25026,-9.73416 -20.00676,-22.09587 -0.70181,-3.14732 -0.97429,-11.82943 -0.49161,-15.66417 1.49568,-11.8827 7.2058,-20.52415 15.99567,-24.20717 5.46567,-2.29015 12.8867,-2.52719 18.68921,-0.59696 4.6789,1.55646 8.11649,3.92764 11.12051,7.67071 7.78255,9.69725 9.24899,28.48451 3.20942,41.11759 -3.17466,6.6405 -7.71177,10.74162 -14.32993,12.95292 -2.84491,0.95056 -3.57593,1.06176 -7.62651,1.16015 -3.01007,0.0731 -5.16247,-0.0375 -6.56,-0.3372 z m 343.8553,-21.59114 c -0.20265,-0.32791 0.45997,-2.15056 7.84605,-21.58112 6.03703,-15.88156 5.65136,-14.92362 6.00832,-14.92362 0.15587,0 0.53875,0.684 0.85088,1.52 0.31213,0.836 2.15184,5.552 4.08823,10.48 4.49955,11.45105 9.17894,24.24098 8.98422,24.55604 -0.21984,0.35575 -27.55735,0.30526 -27.7777,-0.0513 z m -247.2953,-12.68718 c -0.132,-0.13432 -0.24,-6.56074 -0.24,-14.28093 0,-13.06736 0.0387,-14.05259 0.56,-14.26667 0.308,-0.12647 3.944,-0.22942 8.08,-0.22877 8.55216,0.001 11.02872,0.36878 14.92996,2.21502 2.75488,1.30374 4.69543,3.15768 5.77621,5.51841 2.51233,5.48766 1.27266,13.24665 -2.67108,16.71807 -1.7197,1.51373 -5.17753,2.93344 -9.07509,3.72603 -2.89516,0.58875 -16.89532,1.07168 -17.36,0.59884 z"
       id="path18"
       inkscape:connector-curvature="0" />
    <path
       style="display:inline;fill:#4a493a;stroke-width:0.32000002"
       d="M 0,172.8 V 0 H 307.20001 614.40002 V 172.8 345.60001 H 307.20001 0 Z m 84.486492,53.17696 c 8.779441,-1.57405 14.603044,-4.33301 19.353508,-9.16882 4.85,-4.93714 7.18806,-11.23136 7.19451,-19.36813 0.007,-8.2448 -2.06201,-14.76549 -6.13299,-19.33303 -1.0303,-1.15597 -1.51704,-1.93945 -1.3245,-2.13199 0.18315,-0.18315 4.2476,-0.27066 10.20369,-0.2197 l 9.89929,0.0847 0.21177,2.08 c 0.77853,7.64694 1.02972,9.46234 1.70469,12.32 1.47078,6.22688 3.71597,11.38007 7.281,16.71146 6.56461,9.81718 16.94308,16.40986 29.8814,18.98147 6.53708,1.29931 16.15795,1.21427 23.14647,-0.20459 3.34484,-0.67909 9.38693,-2.72634 12.21348,-4.13831 12.31492,-6.15177 20.7121,-17.55661 23.90712,-32.47003 0.74771,-3.49007 1.33408,-8.39224 1.33408,-11.15316 0,-1.43587 0.12332,-1.94569 0.50617,-2.09261 0.27839,-0.10683 4.28159,-0.19423 8.896,-0.19423 6.09876,0 8.49469,0.10486 8.77383,0.384 0.29191,0.29191 0.384,6.20088 0.384,24.64 v 24.256 h 11.2 11.2 v -16.28082 c 0,-12.6401 0.0894,-16.35261 0.4,-16.60187 0.23088,-0.18531 3.91764,-0.3956 8.72,-0.49738 12.94126,-0.27428 20.85656,-1.80802 28.34702,-5.4928 4.78505,-2.3539 7.3469,-4.44313 11.53613,-9.4079 l 0.84314,-0.99923 h 9.89285 c 7.26777,0 9.99475,0.10189 10.27686,0.384 0.2919,0.29191 0.384,6.20088 0.384,24.64 v 24.256 h 11.2 11.2 v -20.736 c 0,-15.70134 0.0933,-20.82924 0.384,-21.12 0.28957,-0.28956 4.80842,-0.384 18.37383,-0.384 9.8944,0 18.2176,0.0874 18.496,0.19423 0.45443,0.17438 0.50617,2.33364 0.50617,21.12 v 20.92577 h 11.2 c 6.16,0 11.23376,-0.036 11.27501,-0.08 0.0412,-0.044 0.14925,-11.096 0.24,-24.56 l 0.16499,-24.48 10.84202,-0.0843 c 7.73488,-0.0601 10.96755,0.0199 11.28,0.27918 0.36362,0.30176 0.43798,4.48713 0.43798,24.64431 V 224.96 h 11.2 11.20001 v -24.256 c 0,-18.43912 0.0921,-24.34809 0.384,-24.64 0.44934,-0.44934 29.86451,-0.56801 30.14041,-0.1216 0.0892,0.14433 -0.55629,2.12433 -1.43437,4.4 -4.58073,11.87133 -15.97004,43.43712 -15.97004,44.26138 0,0.26711 3.09232,0.34181 11.6,0.28021 l 11.6,-0.084 3.55859,-10.39961 c 1.95721,-5.71978 3.72691,-10.57978 3.93261,-10.8 0.29132,-0.31184 4.52902,-0.39931 19.16141,-0.39549 10.33305,0.003 18.96182,0.11574 19.17497,0.25121 0.30903,0.19639 4.82701,12.78424 7.14381,19.90389 l 0.46861,1.44 11.92,0.0839 c 11.37181,0.08 11.92,0.0569 11.92,-0.5022 0,-0.96171 -9.11325,-26.38104 -14.92711,-41.63584 -1.30572,-3.42604 -2.30182,-6.41742 -2.2135,-6.64751 0.12922,-0.33674 3.28333,-0.41834 16.17056,-0.41834 h 16.01005 v -0.96 -0.96 l -16.4,-0.005 c -9.02,-0.003 -16.57792,-0.1179 -16.79536,-0.25602 -0.21744,-0.13811 -1.52915,-3.0519 -2.91495,-6.47509 -5.1583,-12.74222 -10.64912,-25.45388 -15.81974,-36.62399 l -2.37005,-5.12 -10.75981,-0.0842 -10.75977,-0.0842 -0.47236,0.72424 c -1.54182,2.36403 -10.36566,22.40464 -16.31052,37.04425 -2.0369,5.016 -3.8921,9.48 -4.12266,9.92 l -0.4192,0.8 -15.31123,0.0831 c -11.03946,0.0599 -15.43303,-0.018 -15.74781,-0.27918 -0.36163,-0.30014 -0.43654,-4.47469 -0.43654,-24.32314 V 125.12 h -11.20001 -11.2 v 23.96082 c 0,19.88638 -0.0745,24.02263 -0.43798,24.32431 -0.31245,0.25932 -3.54512,0.33933 -11.28,0.27918 l -10.84202,-0.0843 -0.16505,-24.16001 c -0.0908,-13.288 -0.19879,-24.196 -0.24,-24.24 -0.0412,-0.044 -5.11495,-0.08 -11.27495,-0.08 h -11.2 v 19.00577 c 0,17.03557 -0.0525,19.0259 -0.50617,19.2 -0.2784,0.10683 -8.6016,0.19423 -18.496,0.19423 -13.56541,0 -18.08426,-0.0944 -18.37383,-0.384 -0.28995,-0.28995 -0.384,-4.992 -0.384,-19.2 V 125.12 h -11.2 -11.2 v 23.936 c 0,18.19023 -0.0922,24.02818 -0.384,24.32001 -0.46336,0.46335 -18.67136,0.55692 -18.95535,0.0974 -0.0974,-0.15763 0.16571,-1.20163 0.58473,-2.32 1.63086,-4.35284 1.95651,-6.66775 1.92913,-13.71342 -0.0235,-6.04438 -0.0923,-6.80953 -0.87545,-9.73473 -0.46748,-1.74611 -1.27157,-4.07569 -1.78686,-5.17685 -4.41875,-9.44265 -13.83176,-15.12835 -28.88479,-17.44718 -10.71215,-1.65014 -32.43426,-0.90592 -43.70741,1.49746 l -0.72,0.1535 v 23.1299 c 0,17.56326 -0.0924,23.22232 -0.384,23.51391 -0.43073,0.43072 -17.09527,0.56147 -17.72843,0.1391 -0.1944,-0.12969 -0.44839,-1.75237 -0.56647,-3.619 -1.33326,-21.07742 -12.77763,-37.5671 -30.3835,-43.77821 -6.33689,-2.23557 -12.11652,-3.22141 -18.946,-3.23165 -9.10623,-0.0136 -16.30889,1.61631 -23.99161,5.42928 -8.87666,4.40553 -16.14084,11.89076 -20.63602,21.26398 -2.91887,6.08634 -4.43919,11.93678 -5.10803,19.65657 -0.18852,2.17583 -0.42173,4.08383 -0.51824,4.24 -0.0969,0.15674 -5.34365,0.28393 -11.71307,0.28393 h -11.53758 l -2.290007,-1.4273 c -4.225463,-2.63362 -11.269437,-5.72834 -21.15705,-9.29521 -10.179236,-3.67206 -13.792673,-6.87564 -13.735767,-12.17775 0.02557,-2.38225 0.988134,-4.54066 2.627638,-5.89208 2.65904,-2.1918 9.180029,-3.24124 16.293693,-2.62217 4.838865,0.4211 7.939607,1.16529 12.363946,2.96739 1.78777,0.72819 3.644481,1.4815 4.12602,1.67402 0.581552,0.2325 0.982589,0.24298 1.194365,0.0312 0.521002,-0.521 6.404712,-16.84795 6.194212,-17.18855 -0.3515,-0.56873 -5.48953,-2.80358 -9.390884,-4.08467 -6.592641,-2.16483 -10.162842,-2.66908 -19.033223,-2.68828 -6.202103,-0.0134 -8.295793,0.0986 -10.880001,0.58204 -16.919847,3.16532 -26.720001,13.86354 -26.720001,29.16855 0,7.51442 2.042884,12.82577 6.951277,18.07283 1.271204,1.35891 2.219204,2.56283 2.106666,2.67536 C 48.94541,173.66792 43.261336,173.76 36.426667,173.76 H 24.000001 v 0.96 0.96 h 14.24304 14.243041 l 2.63696,1.42389 c 3.182019,1.71822 7.154102,3.38563 13.35696,5.607 14.636974,5.24181 18.658478,8.17126 19.120599,13.92833 0.25624,3.19223 -0.358553,5.0897 -2.28519,7.05286 -3.228672,3.28987 -9.307991,4.47037 -19.039386,3.69711 -7.029025,-0.55853 -12.055319,-1.81383 -18.694228,-4.66884 -1.604007,-0.68979 -2.929002,-1.08881 -3.07537,-0.92615 -0.315846,0.35101 -6.111053,16.77415 -6.108359,17.31058 0.0029,0.55881 5.015121,2.85965 9.312058,4.27458 3.85666,1.26996 10.434807,2.67275 14.849876,3.16675 1.408,0.15753 6.088,0.24264 10.4,0.18911 6.193191,-0.0769 8.614356,-0.23616 11.52649,-0.75827 z m 86.233518,-19.14684 c -9.86517,-1.17136 -17.0353,-6.75539 -20.75585,-16.16446 -1.94029,-4.90688 -2.98218,-12.11237 -2.62959,-18.18566 0.90518,-15.59142 7.97923,-25.91018 19.86544,-28.97728 3.27909,-0.84614 9.9928,-0.77484 13.42143,0.14254 9.71683,2.59985 15.94761,9.85201 18.58775,21.63474 0.68284,3.04748 0.97585,12.34788 0.50126,15.91043 -0.72407,5.43525 -2.23898,10.05679 -4.64279,14.16373 -1.57749,2.69516 -5.44565,6.64624 -7.95227,8.12273 -4.39638,2.58963 -11.16593,3.97417 -16.39538,3.35323 z m 341.39965,-22.01988 c -0.19206,-0.5005 0.95351,-3.65602 8.47962,-23.3572 2.61939,-6.85683 4.90272,-12.51369 5.07405,-12.5708 0.17133,-0.0571 0.56947,0.58503 0.8848,1.42696 0.31533,0.84194 2.15286,5.5628 4.08339,10.4908 5.05447,12.90232 8.92928,23.56607 8.74122,24.05622 -0.13143,0.34242 -2.74698,0.42379 -13.62272,0.42379 -11.53901,0 -13.48583,-0.067 -13.64036,-0.46977 z M 264.70401,172.096 c -0.56661,-0.5666 -0.55119,-27.56226 0.016,-28.02151 0.65663,-0.53167 9.62137,-0.797 13.68,-0.40489 8.71253,0.84173 12.7824,2.89482 15.10824,7.62154 1.03173,2.09674 1.05176,2.21983 1.05176,6.46316 0,4.09091 -0.05,4.43399 -0.92145,6.32068 -2.23657,4.8423 -7.15778,7.24787 -16.51855,8.07456 -5.18475,0.45788 -11.93368,0.42878 -12.416,-0.0535 z"
       id="path16"
       inkscape:connector-curvature="0" />
    <path
       style="display:inline;fill:#000000;stroke-width:0.32000002"
       d="M 0,172.8 V 0 H 307.20001 614.40002 V 172.8 345.60001 H 307.20001 0 Z m 83.520003,53.61269 c 12.627834,-2.12578 20.898697,-7.32746 24.979437,-15.70996 2.21504,-4.55004 2.65183,-6.79267 2.64551,-13.58272 -0.005,-5.34596 -0.0859,-6.22173 -0.83467,-9.03163 -1.01215,-3.79833 -2.90922,-7.53601 -5.0361,-9.92232 -0.8768,-0.98374 -1.59418,-1.87559 -1.59418,-1.98189 0,-0.10631 4.5,-0.15523 10,-0.10872 l 10,0.0846 0.073,1.92 c 0.54096,14.22643 5.36434,26.44201 13.84699,35.06861 8.61479,8.76096 19.96633,13.42894 33.92001,13.9486 15.92837,0.5932 29.3414,-4.32618 38.74384,-14.20975 7.70943,-8.10392 12.0507,-18.66696 13.18752,-32.08746 l 0.39304,-4.64 h 8.7978 8.7978 l 0.16,24.48 0.16,24.48 h 11.36 11.36 l 0.16,-16.48 0.16,-16.48 8,-0.19734 c 8.42474,-0.20781 13.40437,-0.74561 18.88,-2.03906 9.62419,-2.27341 17.38395,-6.82089 21.26523,-12.46214 l 1.01167,-1.47041 10.14156,0.0845 10.14154,0.0845 0.16,24.48 0.16,24.48 h 11.36 11.36 l 0.16,-20.96 0.16,-20.96 h 18.4 18.4 l 0.16,20.96 0.16,20.96 h 11.36 11.36 l 0.16,-24.48 0.16,-24.48 h 11.04 11.04 l 0.16,24.48 0.16,24.48 h 11.36 11.36001 l 0.16,-24.48 0.16,-24.48 14.70073,-0.0833 c 8.08541,-0.0458 14.80211,0.0262 14.92602,0.16 0.1239,0.1338 -0.67888,2.5719 -1.78397,5.418 -5.62694,14.49186 -15.62918,42.56647 -15.38861,43.19335 0.13975,0.36418 2.18791,0.42539 11.90829,0.35588 l 11.73949,-0.0839 0.90464,-2.72 c 0.49757,-1.496 2.14809,-6.35712 3.66787,-10.80249 l 2.7632,-8.08248 19.20029,0.0825 19.20029,0.0825 3.56086,10.4 c 1.9585,5.72 3.67741,10.58 3.81978,10.8 0.19952,0.30827 3.00653,0.4 12.24,0.4 11.93737,0 11.98112,-0.003 11.98112,-0.66839 0,-1.08251 -8.84541,-25.88376 -14.712,-41.25027 -1.41239,-3.69956 -2.568,-6.86798 -2.568,-7.04094 0,-0.20071 5.81776,-0.3445 16.08,-0.39744 l 16.08,-0.083 v -1.12 -1.12 l -16.74263,-0.16 -16.74259,-0.16 -2.96153,-7.36001 c -5.68519,-14.12881 -16.7018,-39.21804 -17.88186,-40.72415 -0.24637,-0.31443 -2.73712,-0.38547 -11.22035,-0.32 l -10.90375,0.0841 -3.28029,7.04 c -4.04246,8.67568 -8.98716,20.15443 -13.8536,32.16 l -3.6968,9.12001 h -15.5183 -15.5183 l -0.16,-24.16001 -0.16,-24.16 H 451.52 440.16 l -0.16,24.16 -0.16,24.16001 H 428.8 417.76 l -0.16,-24.16001 -0.16,-24.16 h -11.36 -11.36 l -0.16,19.04 -0.16,19.04 H 376 357.6 l -0.16,-19.04 -0.16,-19.04 h -11.36 -11.36 l -0.16,24.16 -0.16,24.16001 -9.39613,0.0849 c -8.86897,0.0801 -9.38369,0.0532 -9.17491,-0.48 0.70665,-1.80468 1.73954,-5.34486 2.12546,-7.28489 0.67835,-3.41017 0.59531,-13.03573 -0.14213,-16.47497 -4.0786,-19.02135 -22.24939,-27.04447 -56.53229,-24.9612 -7.82121,0.47527 -16.98936,1.5807 -18.79791,2.26651 l -0.71791,0.27223 -0.0821,23.28872 -0.0821,23.28872 h -8.8 -8.8 L 223.45413,168.96 c -0.92886,-10.39877 -3.59564,-18.44288 -8.63819,-26.05623 -4.10331,-6.19528 -11.23052,-12.35315 -17.82325,-15.39918 -17.26703,-7.97785 -39.59883,-6.10619 -53.67966,4.49899 -11.88344,8.95018 -18.92742,23.12445 -19.55839,39.35642 l -0.0746,1.92001 -11.63002,0.084 -11.63001,0.084 -2.297855,-1.43219 c -4.099821,-2.5553 -11.240189,-5.66606 -22.122113,-9.63767 -6.365933,-2.3234 -10.314755,-4.87939 -11.767955,-7.61716 -1.090653,-2.05474 -0.995658,-5.62783 0.204045,-7.67497 1.716893,-2.92966 5.159661,-4.26012 11.88391,-4.59256 6.692036,-0.33084 12.599284,0.74905 19.030996,3.47901 4.709902,1.99913 4.576272,2.01311 5.560592,-0.582 2.74594,-7.23954 5.55561,-15.33999 5.43225,-15.66148 -0.46644,-1.21551 -11.568029,-5.1613 -17.630333,-6.26626 -5.062992,-0.92283 -17.216823,-1.02506 -21.716926,-0.18268 -12.125526,2.2698 -20.326211,7.93971 -24.648938,17.04214 -1.609811,3.38981 -2.332506,6.47006 -2.55216,10.87777 -0.408381,8.1949 1.596067,14.05048 6.684519,19.5274 1.188,1.2787 2.16,2.41045 2.16,2.515 0,0.10455 -5.580001,0.22778 -12.400001,0.27385 l -12.4,0.0838 v 1.12 1.12 l 14.56,0.16 14.560001,0.16 2.4,1.33875 c 2.728003,1.52173 7.679325,3.59405 13.475831,5.64017 11.888013,4.19637 16.743853,7.24263 18.154173,11.38883 0.522045,1.53475 0.459312,4.81864 -0.123613,6.47082 -0.93695,2.6556 -3.587053,4.60386 -7.580259,5.57275 -4.421428,1.07278 -14.141933,0.89912 -20.246132,-0.36171 -2.91032,-0.60114 -7.556487,-2.13617 -11.308176,-3.73609 -2.50882,-1.06989 -3.052061,-1.20367 -3.386423,-0.83392 -0.411293,0.45482 -6.265402,16.83151 -6.265402,17.52727 0,0.66499 6.991495,3.78723 11.162989,4.98512 4.197575,1.20539 9.307169,2.20719 13.797012,2.70509 4.034048,0.44736 16.832391,0.16964 20.480001,-0.4444 z m 85.697047,-20.03807 c -8.90001,-1.30521 -15.98303,-7.4349 -19.29326,-16.6965 -3.64916,-10.2099 -3.0705,-23.51402 1.42307,-32.71812 4.15392,-8.50841 11.14466,-13.17882 20.67911,-13.8154 7.22321,-0.48227 14.0814,1.86618 18.85172,6.4554 3.64225,3.50398 6.04923,7.98107 7.69628,14.3154 0.72719,2.79672 0.87889,4.17133 1.02128,9.25435 0.10727,3.82901 0.0306,6.90393 -0.21369,8.57489 -1.73086,11.83743 -7.47503,20.06245 -16.26426,23.28862 -4.1557,1.52539 -9.27609,2.01951 -13.90025,1.34136 z m 343.10297,-21.84001 c 0,-0.4844 1.49977,-4.53636 8.13363,-21.97461 5.82451,-15.31072 5.16275,-13.78601 5.55539,-12.8 5.34634,13.42607 13.19098,34.15946 13.19098,34.86373 0,0.2297 -4.25962,0.33628 -13.44,0.33628 -10.96653,0 -13.44,-0.0783 -13.44,-0.4254 z M 264.85334,171.94667 c -0.32632,-0.32633 -0.25557,-27.56279 0.0721,-27.76532 0.15701,-0.097 2.56901,-0.26722 5.36,-0.37819 14.25313,-0.5667 21.62564,2.35913 23.6707,9.39387 0.37603,1.29348 0.47761,2.69541 0.38547,5.31966 -0.10808,3.07787 -0.24931,3.83567 -1.03672,5.56251 -2.07157,4.54312 -6.66695,6.85404 -15.37173,7.73013 -3.81588,0.38404 -12.73945,0.47774 -13.07985,0.13734 z"
       id="path14"
       inkscape:connector-curvature="0" />
  </g>
</svg>
