<?xml version="1.0" encoding="UTF-8" standalone="no"?>
<svg
   xmlns:dc="http://purl.org/dc/elements/1.1/"
   xmlns:cc="http://creativecommons.org/ns#"
   xmlns:rdf="http://www.w3.org/1999/02/22-rdf-syntax-ns#"
   xmlns:svg="http://www.w3.org/2000/svg"
   xmlns="http://www.w3.org/2000/svg"
   xmlns:sodipodi="http://sodipodi.sourceforge.net/DTD/sodipodi-0.dtd"
   xmlns:inkscape="http://www.inkscape.org/namespaces/inkscape"
   version="1.1"
   id="svg2"
   width="614.40002"
   height="345.60001"
   viewBox="0 0 614.40002 345.60001"
   sodipodi:docname="logo_sophia1.0.svg"
   inkscape:version="1.0.2 (e86c870879, 2021-01-15)">
  <metadata
     id="metadata8">
    <rdf:RDF>
      <cc:Work
         rdf:about="">
        <dc:format>image/svg+xml</dc:format>
        <dc:type
           rdf:resource="http://purl.org/dc/dcmitype/StillImage" />
        <dc:title></dc:title>
      </cc:Work>
    </rdf:RDF>
  </metadata>
  <defs
     id="defs6" />
  <sodipodi:namedview
     pagecolor="#ffffff"
     bordercolor="#666666"
     borderopacity="1"
     objecttolerance="10"
     gridtolerance="10"
     guidetolerance="10"
     inkscape:pageopacity="0"
     inkscape:pageshadow="2"
     inkscape:window-width="1920"
     inkscape:window-height="1016"
     id="namedview4"
     showgrid="false"
     inkscape:zoom="1.7513987"
     inkscape:cx="261.38572"
     inkscape:cy="193.44821"
     inkscape:window-x="0"
     inkscape:window-y="27"
     inkscape:window-maximized="1"
     inkscape:current-layer="g14" />
  <g
     inkscape:groupmode="layer"
     inkscape:label="Image"
     id="g10">
    <g
       id="g14"
       style="display:inline">
      <path
         style="display:inline;fill:#dddaa9;stroke-width:0.32"
         d="m 66.880002,226.51164 c -9.457645,-0.42472 -18.271997,-2.46339 -25.475985,-5.89233 l -2.915984,-1.38795 2.92754,-8.25567 c 1.610147,-4.54063 3.023472,-8.50156 3.14072,-8.80208 0.189849,-0.48659 0.503785,-0.41111 2.868445,0.6897 7.072329,3.29234 12.525514,4.48648 21.567027,4.72276 9.071578,0.23706 12.584897,-0.41249 15.892827,-2.93828 2.152812,-1.64379 2.924067,-3.49392 2.937984,-7.04778 0.01018,-2.59607 -0.08111,-3.04732 -0.925831,-4.57714 -0.515411,-0.93343 -1.465472,-2.17448 -2.111248,-2.7579 -2.47376,-2.23489 -7.815869,-4.83134 -15.518141,-7.54233 -5.544759,-1.95161 -10.48305,-4.00239 -13.543479,-5.62435 l -2.676122,-1.41828 H 38.523876 24.000001 v -0.96 -0.96 h 13.13824 13.138241 l -1.963076,-1.81747 c -3.672134,-3.39974 -6.571421,-8.36098 -7.505561,-12.84346 -0.630061,-3.02335 -0.636711,-9.54955 -0.01274,-12.51576 2.666035,-12.67389 12.72081,-20.86149 28.324906,-23.06498 1.32,-0.1864 5.008493,-0.33678 8.19665,-0.33419 8.205811,0.007 13.372317,0.81145 20.283351,3.15944 3.492098,1.18643 8.320008,3.26117 8.320008,3.57543 0,0.25032 -6.07123,17.05821 -6.213019,17.20042 -0.04356,0.0437 -1.367379,-0.47927 -2.941818,-1.16214 -7.416384,-3.21666 -11.585363,-4.01474 -19.878404,-3.80538 -4.848829,0.12242 -6.003846,0.25182 -7.838656,0.87819 -2.536528,0.86592 -4.579725,2.49609 -5.404551,4.31204 -0.668745,1.47231 -0.81919,5.3213 -0.265676,6.79702 1.371638,3.65693 5.179974,6.15355 14.530426,9.52568 8.944467,3.22571 17.349735,6.97917 20.549348,9.17652 l 1.337654,0.91864 h 12.138506 12.1385 l 0.21448,-3.12001 c 0.96277,-14.00511 5.72874,-25.20149 14.40942,-33.8511 6.58957,-6.56599 14.14365,-10.54914 24.04001,-12.67592 3.14057,-0.67492 4.2999,-0.75182 11.18378,-0.74185 6.71193,0.01 8.08999,0.10055 10.93259,0.72048 15.75597,3.43615 26.613,11.7928 33.06862,25.45288 2.93796,6.21673 4.70175,13.33069 5.03058,20.29008 l 0.18546,3.92544 h 9.38929 9.38929 l 0.0821,-23.43595 0.0821,-23.43594 2.08,-0.37487 c 13.9087,-2.50669 34.99599,-2.7734 45.62891,-0.57712 18.00872,3.71981 26.82256,12.64301 27.95701,28.30387 0.45773,6.31894 -0.40469,12.81856 -2.33499,17.5975 l -0.77654,1.92251 h 10.04279 10.04282 V 149.44 125.12 h 11.2 11.2 v 19.2 19.2 h 19.04 19.04 v -19.2 -19.2 h 11.04 11.04 v 24.32 24.32001 h 11.52 11.52 V 149.44 125.12 h 11.2 11.20001 v 24.32 24.32001 h 15.96153 15.96157 L 497.7653,166 c 5.62844,-13.98922 10.2136,-24.63002 15.10064,-35.04426 l 2.74252,-5.84425 10.58487,0.0842 10.5849,0.0843 3.59769,7.84 c 4.29312,9.35544 11.56336,26.30426 14.85543,34.63177 l 2.36867,5.99176 16.88,0.008 16.88,0.008 v 0.95712 0.95712 l -16.43104,0.0829 -16.43107,0.0829 3.15216,8.32 c 4.80963,12.69487 14.66995,40.0152 14.66995,40.64658 0,0.0844 -5.292,0.15219 -11.76,0.15065 l -11.76,-0.003 -3.68,-10.87789 -3.68,-10.8779 -19.63194,0.0807 -19.63194,0.0807 -2.69494,7.68 c -1.48221,4.224 -3.13501,9.084 -3.6729,10.8 l -0.97798,3.12 h -11.48163 -11.48167 l 1.71261,-4.88 c 4.93751,-14.06932 10.05943,-28.10933 14.06531,-38.55544 1.1633,-3.0335 2.11508,-5.5895 2.11508,-5.68 0,-0.0904 -6.984,-0.16447 -15.52,-0.16447 h -15.52 v 24.64 24.64 h -11.20001 -11.2 v -24.64 -24.64 h -11.52 -11.52 v 24.64 24.64 h -11.04 -11.04 v -21.12 -21.12 h -19.04 -19.04 v 21.12 21.12 h -11.2 -11.2 v -24.64 -24.64 l -10.64,0.008 -10.64,0.008 -1.08069,1.59312 c -4.42449,6.52245 -14.26335,11.39885 -26.77022,13.26804 -3.32694,0.49722 -13.40831,1.09474 -18.78909,1.11363 l -2.48,0.009 v 16.64 16.64 h -11.2 -11.2 v -24.64 -24.64 h -9.44 -9.44 v 2.70899 c 0,5.19409 -1.47848,13.11792 -3.40432,18.24531 -6.24728,16.63286 -19.32447,26.91625 -37.46766,29.4631 -4.01404,0.56347 -12.29018,0.62935 -15.92802,0.12679 -17.12484,-2.36577 -29.61079,-11.03385 -36.62229,-25.42419 -3.00622,-6.16995 -4.56464,-12.26467 -5.2163,-20.4 l -0.37808,-4.72 h -10.85809 -10.85808 l 1.62083,1.71379 c 2.90777,3.07454 4.79319,6.59105 6.02977,11.24621 0.48239,1.81594 0.59565,3.4213 0.59833,8.48 0.004,7.15545 -0.42797,9.32452 -2.74094,13.77035 -5.98838,11.51042 -19.306072,16.59259 -40.935158,15.62128 z M 180.32001,206.42123 c 7.57623,-1.81799 12.85717,-6.24664 16.46073,-13.80414 4.70181,-9.8608 4.72289,-25.37696 0.048,-35.35287 -3.64301,-7.77398 -9.16533,-12.3175 -17.09856,-14.06794 -3.80666,-0.83993 -10.96212,-0.54694 -14.45019,0.59168 -3.72967,1.21748 -6.35811,2.87931 -9.44,5.96843 -5.2304,5.24264 -7.96113,12.04513 -8.60816,21.44361 -1.26748,18.41114 6.27048,31.95226 19.61353,35.23353 3.28676,0.80826 10.08086,0.80206 13.47463,-0.0123 z m 359.48596,-22.02122 c -0.18598,-0.484 -1.39165,-3.76 -2.6792,-7.28 -1.28758,-3.52 -3.80906,-10.14401 -5.6033,-14.72001 -1.79424,-4.576 -3.77043,-9.688 -4.39152,-11.36 -0.62108,-1.672 -1.24032,-3.16125 -1.37606,-3.30945 -0.13574,-0.14821 -0.42579,0.28379 -0.64454,0.96 -0.21876,0.6762 -2.62282,7.06145 -5.34241,14.18945 -2.71955,7.128 -5.63859,14.83201 -6.48675,17.12001 -0.84816,2.288 -1.64304,4.412 -1.76637,4.72 -0.21161,0.52836 0.5906,0.56 14.20205,0.56 h 14.42631 z M 282.56001,171.72569 c 8.72393,-2.06905 11.95592,-5.39366 12.39947,-12.75484 0.48312,-8.0177 -2.85812,-12.58999 -10.75016,-14.71098 -1.98984,-0.53477 -3.75257,-0.68813 -9.39653,-0.81753 -3.82098,-0.0876 -7.74498,-0.0596 -8.72,0.0622 l -1.77278,0.2215 v 14.4123 14.41229 l 8.08,-0.16582 c 5.65135,-0.11599 8.7052,-0.31411 10.16,-0.65914 z"
         id="path28" />
      <path
         style="display:inline;fill:#adadad;stroke-width:0.32"
         d="m 69.360002,226.66808 c 0.22,-0.0888 0.58,-0.0888 0.8,0 0.22,0.0888 0.04,0.1614 -0.4,0.1614 -0.44,0 -0.62,-0.0726 -0.4,-0.1614 z m 3.84,0 c 0.22,-0.0888 0.58,-0.0888 0.8,0 0.22,0.0888 0.04,0.1614 -0.4,0.1614 -0.44,0 -0.62,-0.0726 -0.4,-0.1614 z m 98.900008,-0.007 c 0.23099,-0.0924 0.507,-0.0811 0.61333,0.0252 0.10633,0.10633 -0.0827,0.18196 -0.42,0.16807 -0.37278,-0.0154 -0.44861,-0.0912 -0.19333,-0.19333 z m 2.54,0.007 c 0.22,-0.0888 0.58,-0.0888 0.8,0 0.22,0.0888 0.04,0.1614 -0.4,0.1614 -0.44,0 -0.62,-0.0726 -0.4,-0.1614 z m 220.39107,-22.82807 c 0,-11.704 0.0399,-16.492 0.0888,-10.64 0.0488,5.852 0.0488,15.428 0,21.28 -0.0488,5.852 -0.0888,1.064 -0.0888,-10.64 z M 273.3661,191.45825 c 0.31135,-0.0811 0.74335,-0.0758 0.96,0.0119 0.21665,0.0877 -0.0381,0.15404 -0.56609,0.14752 -0.528,-0.007 -0.70526,-0.0782 -0.39391,-0.15938 z m 36.55391,-11.29824 c 0.31856,-0.352 0.65119,-0.64 0.73919,-0.64 0.088,0 -0.10063,0.288 -0.41919,0.64 -0.31856,0.352 -0.65119,0.64 -0.73919,0.64 -0.088,0 0.10063,-0.288 0.41919,-0.64 z m -86.82948,-3.84 c 0,-0.44 0.0726,-0.62 0.16141,-0.4 0.0888,0.22 0.0888,0.58 0,0.8 -0.0888,0.22 -0.16141,0.04 -0.16141,-0.4 z M 395.03028,144.32 c 0,-10.648 0.0403,-15.004 0.0895,-9.68 0.0493,5.324 0.0493,14.036 0,19.36 -0.0493,5.324 -0.0895,0.968 -0.0895,-9.68 z m -77.24501,15.17334 c 0.0154,-0.37278 0.0912,-0.44861 0.19334,-0.19334 0.0924,0.231 0.0811,0.50701 -0.0253,0.61334 -0.10634,0.10633 -0.18197,-0.0827 -0.16807,-0.42 z M 40.080699,152.8 c 0.0036,-0.704 0.06908,-0.95432 0.145626,-0.55626 0.07654,0.39805 0.07363,0.97405 -0.0065,1.28 -0.08009,0.30594 -0.14272,-0.0198 -0.139168,-0.72374 z M 138.24,136.83918 c 0,-0.0664 0.252,-0.31844 0.56,-0.56 0.50754,-0.39803 0.51886,-0.38672 0.12082,0.12082 -0.41803,0.53304 -0.68082,0.70256 -0.68082,0.43918 z m 130.48001,-12.57111 c 0.22,-0.0888 0.58,-0.0888 0.8,0 0.22,0.0888 0.04,0.16141 -0.4,0.16141 -0.44,0 -0.62,-0.0726 -0.4,-0.16141 z m 4.96609,-0.01 c 0.31135,-0.0811 0.74335,-0.0758 0.96,0.0119 0.21665,0.0877 -0.0381,0.15404 -0.56609,0.14752 -0.528,-0.007 -0.70526,-0.0782 -0.39391,-0.15937 z m -198.886098,-1.27 c 0.22,-0.0888 0.58,-0.0888 0.8,0 0.22,0.0888 0.04,0.16141 -0.4,0.16141 -0.44,0 -0.62,-0.0726 -0.4,-0.16141 z m 3.36609,-0.01 c 0.311351,-0.0811 0.743351,-0.0758 0.96,0.0119 0.21665,0.0877 -0.03809,0.15404 -0.566089,0.14752 -0.528,-0.007 -0.705261,-0.0782 -0.393911,-0.15937 z m 93.933918,0.003 c 0.23099,-0.0924 0.507,-0.0811 0.61333,0.0252 0.10633,0.10633 -0.0827,0.18196 -0.42,0.16807 -0.37278,-0.0154 -0.44861,-0.0912 -0.19333,-0.19333 z m 2.56,0 c 0.23099,-0.0924 0.507,-0.0811 0.61333,0.0252 0.10633,0.10633 -0.0827,0.18196 -0.42,0.16807 -0.37278,-0.0154 -0.44861,-0.0912 -0.19333,-0.19333 z"
         id="path26" />
      <path
         style="display:inline;fill:#8f8f8f;stroke-width:0.32"
         d="m 68.420002,226.66141 c 0.230999,-0.0924 0.506999,-0.0811 0.613335,0.0252 0.106332,0.10633 -0.08267,0.18196 -0.42,0.16807 -0.372784,-0.0154 -0.448608,-0.0912 -0.193335,-0.19333 z m 6.08,0 c 0.230999,-0.0924 0.506999,-0.0811 0.613335,0.0252 0.106333,0.10633 -0.08267,0.18196 -0.42,0.16807 -0.372784,-0.0154 -0.448608,-0.0912 -0.193335,-0.19333 z m 96.640008,0 c 0.23099,-0.0924 0.507,-0.0811 0.61333,0.0252 0.10633,0.10633 -0.0827,0.18196 -0.42,0.16807 -0.37278,-0.0154 -0.44861,-0.0912 -0.19333,-0.19333 z m 4.8,0 c 0.23099,-0.0924 0.507,-0.0811 0.61333,0.0252 0.10633,0.10633 -0.0827,0.18196 -0.42,0.16807 -0.37278,-0.0154 -0.44861,-0.0912 -0.19333,-0.19333 z m -65.16948,-28.2614 c 0,-0.44 0.0726,-0.62 0.1614,-0.4 0.0888,0.22 0.0888,0.58 0,0.8 -0.0888,0.22 -0.1614,0.04 -0.1614,-0.4 z m 0.0119,-2.08 c 0.007,-0.528 0.0782,-0.70527 0.15937,-0.39391 0.0811,0.31135 0.0758,0.74335 -0.0119,0.96 -0.0877,0.21664 -0.15404,-0.0381 -0.14752,-0.56609 z m -26.023204,-5.84 c -0.398038,-0.50754 -0.38672,-0.51886 0.12082,-0.12082 0.308,0.24155 0.56,0.49355 0.56,0.56 0,0.26337 -0.262781,0.0939 -0.68082,-0.43918 z m 138.331334,-12.88 c 0,-0.44 0.0726,-0.62 0.16141,-0.4 0.0888,0.22 0.0888,0.58 0,0.8 -0.0888,0.22 -0.16141,0.04 -0.16141,-0.4 z m -119.13135,-0.24 c -0.39803,-0.50754 -0.38672,-0.51886 0.12082,-0.12082 0.53304,0.41803 0.70256,0.68082 0.43918,0.68082 -0.0664,0 -0.31844,-0.252 -0.56,-0.56 z m -1.28,-1.28 c -0.39803,-0.50754 -0.38672,-0.51886 0.12082,-0.12082 0.308,0.24155 0.56,0.49355 0.56,0.56 0,0.26337 -0.26278,0.0939 -0.68082,-0.43918 z M 223.09053,172.48 c 0,-0.44 0.0726,-0.62 0.16141,-0.4 0.0888,0.22 0.0888,0.58 0,0.80001 -0.0888,0.22 -0.16141,0.04 -0.16141,-0.40001 z m -175.754749,-1.2 -0.775779,-0.88 0.88,0.77578 c 0.822492,0.72509 1.026748,0.98422 0.775779,0.98422 -0.05732,0 -0.453319,-0.396 -0.88,-0.88 z M 137.44,137.6 c 0.31856,-0.352 0.6512,-0.64 0.7392,-0.64 0.088,0 -0.10064,0.288 -0.4192,0.64 -0.31855,0.352 -0.65119,0.64 -0.73919,0.64 -0.088,0 0.10064,-0.288 0.41919,-0.64 z m 130.34001,-13.33859 c 0.231,-0.0924 0.507,-0.0811 0.61333,0.0252 0.10634,0.10633 -0.0827,0.18196 -0.42,0.16807 -0.37278,-0.0154 -0.4486,-0.0912 -0.19333,-0.19333 z m -96.64,-1.28 c 0.23099,-0.0924 0.507,-0.0811 0.61333,0.0252 0.10633,0.10633 -0.0827,0.18196 -0.42,0.16807 -0.37278,-0.0154 -0.44861,-0.0912 -0.19333,-0.19333 z m 4.48,0 c 0.23099,-0.0924 0.507,-0.0811 0.61333,0.0252 0.10633,0.10633 -0.0827,0.18196 -0.42,0.16807 -0.37278,-0.0154 -0.44861,-0.0912 -0.19333,-0.19333 z"
         id="path24" />
      <path
         style="display:inline;fill:#6f6f6f;stroke-width:0.32"
         d="m 67.460002,226.66141 c 0.230999,-0.0924 0.506999,-0.0811 0.613335,0.0252 0.106332,0.10633 -0.08267,0.18196 -0.42,0.16807 -0.372784,-0.0154 -0.448608,-0.0912 -0.193335,-0.19333 z m 8,0 c 0.230999,-0.0924 0.506999,-0.0811 0.613335,0.0252 0.106333,0.10633 -0.08267,0.18196 -0.42,0.16807 -0.372784,-0.0154 -0.448608,-0.0912 -0.193335,-0.19333 z M 208.32001,214.29988 c 0,-0.0551 0.468,-0.52308 1.04,-1.04001 l 1.04,-0.93986 -0.93987,1.04 c -0.87609,0.96942 -1.14013,1.18708 -1.14013,0.93987 z m -16.96,-14.13987 c 0.41336,-0.44 0.82356,-0.8 0.91156,-0.8 0.088,0 -0.1782,0.36 -0.59156,0.8 -0.41336,0.44 -0.82357,0.8 -0.91157,0.8 -0.088,0 0.17821,-0.36 0.59157,-0.8 z m -80.61474,-0.66667 c 0.0154,-0.37278 0.0912,-0.44861 0.19333,-0.19333 0.0924,0.23099 0.0811,0.507 -0.0252,0.61333 -0.10633,0.10633 -0.18196,-0.0827 -0.16807,-0.42 z m 164.69474,-8.02526 c 0.22,-0.0888 0.58,-0.0888 0.8,0 0.22,0.0888 0.04,0.1614 -0.4,0.1614 -0.44,0 -0.62,-0.0726 -0.4,-0.1614 z m -75.41474,-13.73474 c 0.0154,-0.37278 0.0912,-0.44861 0.19333,-0.19333 0.0924,0.23099 0.0811,0.507 -0.0252,0.61333 -0.10633,0.10633 -0.18196,-0.0827 -0.16807,-0.42 z m 0,-5.76 c 0.0154,-0.37278 0.0912,-0.44861 0.19333,-0.19334 0.0924,0.231 0.0811,0.50701 -0.0252,0.61334 -0.10633,0.10633 -0.18196,-0.0827 -0.16807,-0.42 z m 23.04,-0.64 c 0.0154,-0.37278 0.0912,-0.44861 0.19333,-0.19334 0.0924,0.231 0.0811,0.50701 -0.0252,0.61334 -0.10633,0.10633 -0.18196,-0.0827 -0.16807,-0.42 z M 191.33579,149.52 l -0.77578,-0.88 0.88,0.77578 c 0.484,0.42669 0.88,0.82269 0.88,0.88 0,0.25097 -0.25914,0.0467 -0.98422,-0.77578 z m -35.17578,-0.20081 c 0,-0.0665 0.252,-0.31845 0.56,-0.56 0.50753,-0.39804 0.51885,-0.38672 0.12081,0.12081 -0.41803,0.53304 -0.68081,0.70256 -0.68081,0.43919 z M 65.120002,145.28 c 0.318557,-0.352 0.651194,-0.64 0.739194,-0.64 0.088,0 -0.100637,0.288 -0.419194,0.64 -0.318557,0.352 -0.651193,0.64 -0.739193,0.64 -0.088,0 0.100636,-0.288 0.419193,-0.64 z m -18.08,-11.62013 c 0,-0.0551 0.468,-0.52307 1.04,-1.04 l 1.04,-0.93987 -0.939869,1.04 c -0.87609,0.96943 -1.140131,1.18709 -1.140131,0.93987 z m 212.740008,-9.07846 c 0.231,-0.0924 0.507,-0.0811 0.61333,0.0252 0.10634,0.10633 -0.0827,0.18196 -0.42,0.16807 -0.37278,-0.0154 -0.44861,-0.0912 -0.19333,-0.19333 z m 6.54609,-0.32316 c 0.31135,-0.0811 0.74335,-0.0758 0.96,0.0119 0.21665,0.0877 -0.0381,0.15404 -0.56609,0.14752 -0.528,-0.007 -0.70526,-0.0782 -0.39391,-0.15938 z m 9.43391,0.01 c 0.22,-0.0888 0.58,-0.0888 0.8,0 0.22,0.0888 0.04,0.16141 -0.4,0.16141 -0.44,0 -0.62,-0.0726 -0.4,-0.16141 z M 73.220002,122.98141 c 0.230999,-0.0924 0.506999,-0.0811 0.613335,0.0252 0.106333,0.10634 -0.08267,0.18197 -0.42,0.16807 -0.372784,-0.0154 -0.448608,-0.0912 -0.193335,-0.19333 z m 7.040001,0 c 0.230998,-0.0924 0.506998,-0.0811 0.613334,0.0252 0.106333,0.10634 -0.08267,0.18197 -0.42,0.16807 -0.372784,-0.0154 -0.448608,-0.0912 -0.193334,-0.19333 z m 96.320007,0 c 0.23099,-0.0924 0.507,-0.0811 0.61333,0.0252 0.10633,0.10634 -0.0827,0.18197 -0.42,0.16807 -0.37278,-0.0154 -0.44861,-0.0912 -0.19333,-0.19333 z"
         id="path22" />
      <path
         style="display:inline;fill:#4e4e4e;stroke-width:0.32"
         d="m 66.160002,226.66808 c 0.22,-0.0888 0.58,-0.0888 0.8,0 0.22,0.0888 0.04,0.1614 -0.4,0.1614 -0.44,0 -0.62,-0.0726 -0.4,-0.1614 z m 10.26,-0.007 c 0.230999,-0.0924 0.506999,-0.0811 0.613335,0.0252 0.106333,0.10633 -0.08267,0.18196 -0.42,0.16807 -0.372784,-0.0154 -0.448608,-0.0912 -0.193335,-0.19333 z m 93.120008,0 c 0.23099,-0.0924 0.507,-0.0811 0.61333,0.0252 0.10633,0.10633 -0.0827,0.18196 -0.42,0.16807 -0.37278,-0.0154 -0.44861,-0.0912 -0.19333,-0.19333 z m 8,0 c 0.23099,-0.0924 0.507,-0.0811 0.61333,0.0252 0.10633,0.10633 -0.0827,0.18196 -0.42,0.16807 -0.37278,-0.0154 -0.44861,-0.0912 -0.19333,-0.19333 z M 102.72,217.81988 c 0,-0.0551 0.468,-0.52308 1.04,-1.04 l 1.04,-0.93987 -0.93987,1.04 c -0.87609,0.96942 -1.14013,1.18708 -1.14013,0.93987 z m 104.64001,-2.58069 c 0,-0.0665 0.252,-0.31845 0.56,-0.56 0.50754,-0.39804 0.51885,-0.38672 0.12082,0.12082 -0.41804,0.53304 -0.68082,0.70255 -0.68082,0.43918 z M 66.180002,207.46141 c 0.230999,-0.0924 0.506999,-0.0811 0.613335,0.0252 0.106332,0.10633 -0.08267,0.18196 -0.42,0.16807 -0.372784,-0.0154 -0.448608,-0.0912 -0.193335,-0.19333 z m 21.550526,-10.0214 c 0,-0.44 0.07263,-0.62 0.161404,-0.4 0.08877,0.22 0.08877,0.58 0,0.8 -0.08877,0.22 -0.161404,0.04 -0.161404,-0.4 z m 23.014742,-3.06667 c 0.0154,-0.37278 0.0912,-0.44861 0.19333,-0.19333 0.0924,0.23099 0.0811,0.507 -0.0252,0.61333 -0.10633,0.10633 -0.18196,-0.0827 -0.16807,-0.42 z m 165.97474,-2.90526 c 0.22,-0.0888 0.58,-0.0888 0.8,0 0.22,0.0888 0.04,0.1614 -0.4,0.1614 -0.44,0 -0.62,-0.0726 -0.4,-0.1614 z m -53.65474,-12.13474 c 0.0154,-0.37278 0.0912,-0.44861 0.19333,-0.19333 0.0924,0.23099 0.0811,0.507 -0.0252,0.61333 -0.10633,0.10633 -0.18196,-0.0827 -0.16807,-0.42 z m -22.98457,-3.17333 c 0.004,-0.704 0.0691,-0.95432 0.14563,-0.55627 0.0765,0.39805 0.0736,0.97405 -0.006,1.28 -0.0801,0.30595 -0.14272,-0.0197 -0.13917,-0.72373 z m 0,-2.56 c 0.004,-0.704 0.0691,-0.95433 0.14563,-0.55627 0.0765,0.39805 0.0736,0.97405 -0.006,1.28 -0.0801,0.30595 -0.14272,-0.0197 -0.13917,-0.72373 z m 76.33931,-1.3386 c 0.231,-0.0924 0.507,-0.0811 0.61333,0.0252 0.10634,0.10633 -0.0827,0.18196 -0.42,0.16807 -0.37278,-0.0154 -0.4486,-0.0912 -0.19333,-0.19333 z m -53.35474,-1.88807 c 0.0154,-0.37278 0.0912,-0.44861 0.19333,-0.19334 0.0924,0.231 0.0811,0.50701 -0.0252,0.61334 -0.10633,0.10633 -0.18196,-0.0827 -0.16807,-0.42 z m 94.72,-8.96 c 0.0154,-0.37278 0.0912,-0.44861 0.19334,-0.19334 0.0924,0.231 0.0811,0.50701 -0.0253,0.61334 -0.10634,0.10633 -0.18197,-0.0827 -0.16807,-0.42 z m -23.04,-2.56 c 0.0154,-0.37279 0.0912,-0.44861 0.19333,-0.19334 0.0924,0.231 0.0811,0.50701 -0.0252,0.61334 -0.10634,0.10633 -0.18197,-0.0827 -0.16807,-0.42 z m 0,-2.56 c 0.0154,-0.37279 0.0912,-0.44861 0.19333,-0.19334 0.0924,0.231 0.0811,0.50701 -0.0252,0.61334 -0.10634,0.10633 -0.18197,-0.0827 -0.16807,-0.42 z m -254.720005,-0.64 c 0.01536,-0.37279 0.09118,-0.44861 0.193332,-0.19334 0.09244,0.231 0.08107,0.50701 -0.02525,0.61334 -0.106336,0.10633 -0.181965,-0.0827 -0.168071,-0.42 z m 0,-5.76 c 0.01536,-0.37279 0.09118,-0.44861 0.193332,-0.19334 0.09244,0.231 0.08107,0.50701 -0.02525,0.61334 -0.106336,0.10633 -0.181965,-0.0827 -0.168071,-0.42 z m 227.754745,-6.43193 c 0.231,-0.0924 0.507,-0.0811 0.61333,0.0252 0.10634,0.10633 -0.0827,0.18196 -0.42,0.16807 -0.37278,-0.0154 -0.4486,-0.0912 -0.19333,-0.19333 z m -58.20422,-6.42141 -0.77578,-0.88 0.88,0.77578 c 0.484,0.42668 0.88,0.82268 0.88,0.88 0,0.25097 -0.25914,0.0467 -0.98422,-0.77578 z m 55.30422,-12.77193 c 0.22,-0.0888 0.58,-0.0888 0.8,0 0.22,0.0888 0.04,0.16141 -0.4,0.16141 -0.44,0 -0.62,-0.0726 -0.4,-0.16141 z m 12.16,0 c 0.22,-0.0888 0.58,-0.0888 0.8,0 0.22,0.0888 0.04,0.16141 -0.4,0.16141 -0.44,0 -0.62,-0.0726 -0.4,-0.16141 z M 72.260002,122.98141 c 0.230999,-0.0924 0.506999,-0.0811 0.613335,0.0252 0.106333,0.10633 -0.08267,0.18196 -0.42,0.16807 -0.372784,-0.0154 -0.448608,-0.0912 -0.193335,-0.19333 z m 8.960001,0 c 0.230998,-0.0924 0.506998,-0.0811 0.613334,0.0252 0.106333,0.10633 -0.08267,0.18196 -0.42,0.16807 -0.372784,-0.0154 -0.448608,-0.0912 -0.193334,-0.19333 z m 88.320007,0 c 0.23099,-0.0924 0.507,-0.0811 0.61333,0.0252 0.10633,0.10633 -0.0827,0.18196 -0.42,0.16807 -0.37278,-0.0154 -0.44861,-0.0912 -0.19333,-0.19333 z m 8,0 c 0.23099,-0.0924 0.507,-0.0811 0.61333,0.0252 0.10633,0.10633 -0.0827,0.18196 -0.42,0.16807 -0.37278,-0.0154 -0.44861,-0.0912 -0.19333,-0.19333 z"
         id="path20" />
      <path
         style="display:inline;fill:#2c2c2c;stroke-width:0.32"
         d="m 64.880002,226.66808 c 0.22,-0.0888 0.58,-0.0888 0.8,0 0.22,0.0888 0.04,0.1614 -0.4,0.1614 -0.44,0 -0.62,-0.0726 -0.4,-0.1614 z m 12.480001,0 c 0.22,-0.0888 0.58,-0.0888 0.8,0 0.22,0.0888 0.04,0.1614 -0.4,0.1614 -0.44,0 -0.62,-0.0726 -0.4,-0.1614 z m 90.880007,0 c 0.22,-0.0888 0.58,-0.0888 0.8,0 0.22,0.0888 0.04,0.1614 -0.4,0.1614 -0.44,0 -0.62,-0.0726 -0.4,-0.1614 z m 10.26,-0.007 c 0.23099,-0.0924 0.507,-0.0811 0.61333,0.0252 0.10633,0.10633 -0.0827,0.18196 -0.42,0.16807 -0.37278,-0.0154 -0.44861,-0.0912 -0.19333,-0.19333 z m 85.9689,-18.34141 c 0,-9.24 0.0409,-13.02 0.0909,-8.4 0.05,4.62 0.05,12.18 0,16.8 -0.05,4.62 -0.0909,0.84 -0.0909,-8.4 z m 92.80217,-4.48 c 0,-11.704 0.0399,-16.492 0.0888,-10.64 0.0488,5.852 0.0488,15.428 0,21.28 -0.0488,5.852 -0.0888,1.064 -0.0888,-10.64 z m 60.16119,-3.52 c 0,-13.64 0.0394,-19.22 0.0876,-12.4 0.0482,6.82 0.0482,17.98 0,24.8 -0.0482,6.82 -0.0876,1.24 -0.0876,-12.4 z m 45.44,0 c 0,-13.64 0.0394,-19.22 0.0876,-12.4 0.0482,6.82 0.0482,17.98 0,24.8 -0.0482,6.82 -0.0876,1.24 -0.0876,-12.4 z m -324.9632,12.88 -1.74907,-1.84 1.84,1.74906 c 1.70942,1.62495 1.98659,1.93094 1.74907,1.93094 -0.05,0 -0.87801,-0.828 -1.84,-1.84 z m -70.622978,-5.74176 c 0.31135,-0.0811 0.74335,-0.0758 0.96,0.0119 0.216649,0.0877 -0.03809,0.15404 -0.56609,0.14752 -0.528,-0.007 -0.705261,-0.0782 -0.39391,-0.15937 z m 7.19391,0.01 c 0.22,-0.0888 0.58,-0.0888 0.8,0 0.22,0.0888 0.04,0.16141 -0.4,0.16141 -0.44,0 -0.62,-0.0726 -0.4,-0.16141 z m -11.18,-0.32666 c 0.230998,-0.0924 0.506998,-0.0811 0.613334,0.0252 0.106333,0.10633 -0.08267,0.18196 -0.42,0.16807 -0.372784,-0.0154 -0.448608,-0.0912 -0.193334,-0.19334 z m 107.500008,-0.31333 c 0.22,-0.0888 0.58,-0.0888 0.8,0 0.22,0.0888 0.04,0.1614 -0.4,0.1614 -0.44,0 -0.62,-0.0726 -0.4,-0.1614 z m 5.14,-0.007 c 0.23099,-0.0924 0.507,-0.0811 0.61333,0.0252 0.10633,0.10633 -0.0827,0.18196 -0.42,0.16807 -0.37278,-0.0154 -0.44861,-0.0912 -0.19333,-0.19333 z m -90.660007,-2.98141 c 0.318557,-0.352 0.651193,-0.64 0.739193,-0.64 0.088,0 -0.100636,0.288 -0.419193,0.64 -0.318557,0.352 -0.651194,0.64 -0.739194,0.64 -0.088,0 0.100637,-0.288 0.419194,-0.64 z m 25.465267,-2.74667 c 0.0154,-0.37278 0.0912,-0.44861 0.19333,-0.19333 0.0924,0.23099 0.0811,0.507 -0.0252,0.61333 -0.10633,0.10633 -0.18196,-0.0827 -0.16807,-0.42 z m 45.07751,-1.01333 -1.10277,-1.2 1.2,1.10277 c 0.66,0.60653 1.2,1.14653 1.2,1.2 0,0.24436 -0.2708,0.0141 -1.29723,-1.10277 z m -45.07751,-6.66667 c 0.0154,-0.37278 0.0912,-0.44861 0.19333,-0.19333 0.0924,0.23099 0.0811,0.507 -0.0252,0.61333 -0.10633,0.10633 -0.18196,-0.0827 -0.16807,-0.42 z m 167.25474,-1.94526 c 0.22,-0.0888 0.58,-0.0888 0.8,0 0.22,0.0888 0.04,0.1614 -0.4,0.1614 -0.44,0 -0.62,-0.0726 -0.4,-0.1614 z m -54.89762,-10.82807 c 0.007,-0.528 0.0782,-0.70527 0.15937,-0.39392 0.0811,0.31136 0.0758,0.74336 -0.0119,0.96 -0.0877,0.21665 -0.15404,-0.0381 -0.14751,-0.56608 z m -75.85186,-2.08 c 0,-0.44 0.0726,-0.62 0.1614,-0.4 0.0888,0.22 0.0888,0.58 0,0.8 -0.0888,0.22 -0.1614,0.04 -0.1614,-0.4 z m -23.31463,-1.28 c 0,-0.968 0.06,-1.364 0.1333,-0.88 0.0733,0.484 0.0733,1.276 0,1.76 -0.0733,0.484 -0.1333,0.088 -0.1333,-0.88 z m -0.009,-4.80001 c 0,-0.792 0.0624,-1.116 0.13868,-0.72 0.0763,0.396 0.0763,1.04401 0,1.44001 -0.0763,0.396 -0.13868,0.072 -0.13868,-0.72001 z m 293.50501,-23.04 c 0,-13.464 0.0395,-18.972 0.0877,-12.24 0.0483,6.732 0.0483,17.748 0,24.48 -0.0482,6.732 -0.0877,1.224 -0.0877,-12.24 z m 45.44001,0 c 0,-13.464 0.0395,-18.972 0.0877,-12.24 0.0483,6.732 0.0483,17.748 0,24.48 -0.0482,6.732 -0.0877,1.224 -0.0877,-12.24 z m -198.48067,8.72 c -0.0393,-7.964 0.0365,-14.48008 0.1685,-14.48018 0.21825,-1.8e-4 0.21393,10.74996 -0.01,23.84018 -0.0481,2.816 -0.1196,-1.396 -0.15892,-9.36 z m 10.57459,14.09825 c 0.31135,-0.0811 0.74335,-0.0758 0.96,0.0119 0.21665,0.0877 -0.0381,0.15404 -0.56609,0.14752 -0.528,-0.007 -0.70526,-0.0782 -0.39391,-0.15938 z M 147.25053,171.52 c 0,-0.44 0.0726,-0.62 0.1614,-0.4 0.0888,0.22 0.0888,0.58 0,0.8 -0.0888,0.22 -0.1614,0.04 -0.1614,-0.4 z m 131.72948,0.42141 c 0.231,-0.0924 0.507,-0.0811 0.61333,0.0252 0.10634,0.10633 -0.0827,0.18196 -0.42,0.16807 -0.37278,-0.0154 -0.4486,-0.0912 -0.19333,-0.19333 z m -79.27474,-2.52807 c 0.0154,-0.37278 0.0912,-0.44861 0.19333,-0.19334 0.0924,0.231 0.0811,0.50701 -0.0252,0.61334 -0.10633,0.10633 -0.18196,-0.0827 -0.16807,-0.42 z M 223.09053,169.28 c 0,-0.44 0.0726,-0.62 0.16141,-0.4 0.0888,0.22 0.0888,0.58 0,0.8 -0.0888,0.22 -0.16141,0.04 -0.16141,-0.4 z m 68.10948,-1.76 c 0.41336,-0.44 0.82356,-0.8 0.91156,-0.8 0.088,0 -0.1782,0.36 -0.59156,0.8 -0.41336,0.44 -0.82356,0.8 -0.91156,0.8 -0.088,0 0.1782,-0.36 0.59156,-0.8 z m -167.01474,-0.0267 c 0.0154,-0.37279 0.0912,-0.44861 0.19333,-0.19334 0.0924,0.231 0.0811,0.50701 -0.0252,0.61334 -0.10633,0.10633 -0.18196,-0.0827 -0.16807,-0.42 z m 98.56,-1.6 c 0.0154,-0.37279 0.0912,-0.44861 0.19333,-0.19334 0.0924,0.231 0.0811,0.50701 -0.0252,0.61334 -0.10633,0.10633 -0.18196,-0.0827 -0.16807,-0.42 z M 357.27028,144.32 c 0,-10.648 0.0403,-15.004 0.0895,-9.68 0.0493,5.324 0.0493,14.036 0,19.36 -0.0493,5.324 -0.0895,0.968 -0.0895,-9.68 z m -39.48501,18.05334 c 0.0154,-0.37278 0.0912,-0.44861 0.19334,-0.19334 0.0924,0.231 0.0811,0.50701 -0.0253,0.61334 -0.10634,0.10633 -0.18197,-0.0827 -0.16807,-0.42 z M 294.78239,157.6 c 0.007,-0.528 0.0782,-0.70526 0.15938,-0.39391 0.0811,0.31135 0.0758,0.74335 -0.0119,0.96 -0.0876,0.21665 -0.15403,-0.0381 -0.14751,-0.56609 z m -229.372791,-0.56 -0.609597,-0.72 0.72,0.6096 c 0.676621,0.57287 0.865677,0.8304 0.609597,0.8304 -0.06072,0 -0.384723,-0.324 -0.72,-0.72 z m 252.375671,-3.94666 c 0.0154,-0.37279 0.0912,-0.44861 0.19334,-0.19334 0.0924,0.231 0.0811,0.50701 -0.0253,0.61334 -0.10634,0.10633 -0.18197,-0.0827 -0.16807,-0.42 z m -48.90526,-9.63392 c 0.308,-0.0805 0.812,-0.0805 1.12,0 0.308,0.0805 0.056,0.14634 -0.56,0.14634 -0.616,0 -0.868,-0.0659 -0.56,-0.14634 z m 7.68609,-0.001 c 0.31135,-0.0811 0.74335,-0.0758 0.96,0.0119 0.21665,0.0877 -0.0381,0.15404 -0.56609,0.14752 -0.528,-0.007 -0.70526,-0.0782 -0.39391,-0.15938 z m -105.76609,-0.63007 c 0.22,-0.0888 0.58,-0.0888 0.8,0 0.22,0.0888 0.04,0.16141 -0.4,0.16141 -0.44,0 -0.62,-0.0726 -0.4,-0.16141 z m 5.14,-0.007 c 0.23099,-0.0924 0.507,-0.0811 0.61333,0.0252 0.10633,0.10633 -0.0827,0.18196 -0.42,0.16807 -0.37278,-0.0154 -0.44861,-0.0912 -0.19333,-0.19333 z M 74.646092,142.17826 c 0.31135,-0.0811 0.74335,-0.0758 0.96,0.0119 0.21665,0.0877 -0.03809,0.15404 -0.56609,0.14752 -0.528,-0.007 -0.70526,-0.0782 -0.39391,-0.15938 z m 6.4,0 c 0.311351,-0.0811 0.743351,-0.0758 0.96,0.0119 0.21665,0.0877 -0.03809,0.15404 -0.566089,0.14752 -0.528,-0.007 -0.705261,-0.0782 -0.393911,-0.15938 z M 207.1696,134.64 l -0.60959,-0.72 0.72,0.6096 c 0.67662,0.57287 0.86567,0.8304 0.60959,0.8304 -0.0607,0 -0.38472,-0.324 -0.72,-0.72 z m 46.85041,-9.73859 c 0.231,-0.0924 0.507,-0.0811 0.61333,0.0252 0.10634,0.10633 -0.0827,0.18196 -0.42,0.16807 -0.37278,-0.0154 -0.44861,-0.0912 -0.19333,-0.19333 z m 3.82,-0.31334 c 0.22,-0.0888 0.58,-0.0888 0.8,0 0.22,0.0888 0.04,0.16141 -0.4,0.16141 -0.44,0 -0.62,-0.0726 -0.4,-0.16141 z m 24.66,-0.007 c 0.231,-0.0924 0.507,-0.0811 0.61333,0.0252 0.10634,0.10633 -0.0827,0.18196 -0.42,0.16807 -0.37278,-0.0154 -0.4486,-0.0912 -0.19333,-0.19333 z m -19.38,-0.322 c 0.308,-0.0805 0.812,-0.0805 1.12,0 0.308,0.0805 0.056,0.14634 -0.56,0.14634 -0.616,0 -0.868,-0.0658 -0.56,-0.14634 z m 15.2,0.009 c 0.22,-0.0888 0.58,-0.0888 0.8,0 0.22,0.0888 0.04,0.1614 -0.4,0.1614 -0.44,0 -0.62,-0.0726 -0.4,-0.1614 z M 71.300002,122.98139 c 0.230999,-0.0924 0.506999,-0.0811 0.613335,0.0252 0.106333,0.10633 -0.08267,0.18197 -0.42,0.16807 -0.372784,-0.0154 -0.448608,-0.0912 -0.193335,-0.19333 z m 10.860001,0.007 c 0.22,-0.0888 0.58,-0.0888 0.8,0 0.22,0.0888 0.04,0.1614 -0.4,0.1614 -0.44,0 -0.62,-0.0726 -0.4,-0.1614 z m 86.420007,-0.007 c 0.23099,-0.0924 0.507,-0.0811 0.61333,0.0252 0.10633,0.10633 -0.0827,0.18197 -0.42,0.16807 -0.37278,-0.0154 -0.44861,-0.0912 -0.19333,-0.19333 z m 9.92,0 c 0.23099,-0.0924 0.507,-0.0811 0.61333,0.0252 0.10633,0.10633 -0.0827,0.18197 -0.42,0.16807 -0.37278,-0.0154 -0.44861,-0.0912 -0.19333,-0.19333 z"
         id="path18" />
      <path
         style="display:inline;fill:#000000;stroke-width:0.32"
         d="M 0,172.8 V 0 H 307.20001 614.40002 V 172.8 345.60001 H 307.20001 0 Z m 84.486492,53.17768 c 6.165841,-1.10667 10.812337,-2.78561 14.68955,-5.30786 5.521268,-3.59176 8.803268,-7.99394 10.803928,-14.49142 0.81984,-2.66261 0.86725,-3.16329 0.8577,-9.05839 -0.009,-5.36747 -0.10667,-6.59797 -0.70072,-8.8 -1.03975,-3.85419 -3.20613,-7.98277 -5.50555,-10.49218 l -1.96809,-2.14782 h 10.55029 10.5503 l 0.22194,3.12 c 0.55053,7.73915 1.74353,13.37711 4.04424,19.11251 6.3548,15.84185 19.53914,25.86536 37.45099,28.47246 6.63789,0.96615 15.89244,0.50598 22.51894,-1.11972 20.829,-5.11006 34.11676,-22.31683 35.26456,-45.66525 l 0.1927,-3.92 h 9.23137 9.23137 v 24.64 24.64 h 11.36 11.36 v -16.60017 -16.60017 l 8.56,-0.17244 c 12.89283,-0.25971 20.37822,-1.6455 28.08,-5.19852 4.6822,-2.16002 9.55462,-6.07678 11.61318,-9.33542 l 0.86682,-1.37214 10.48,-6.4e-4 10.48,-6.4e-4 v 24.64 24.64 h 11.36 11.36 v -21.12 -21.12 h 18.72 18.72 v 21.12 21.12 h 11.36 11.36 v -24.64 -24.64 h 11.36 11.36 v 24.64 24.64 h 11.36 11.36001 v -24.64 -24.64 h 15.23731 c 14.36288,0 15.22761,0.0321 15.06809,0.56 -0.0931,0.308 -1.98649,5.36315 -4.20755,11.23367 -2.22105,5.87052 -5.9151,15.95052 -8.20896,22.4 -2.29389,6.44948 -4.44726,12.48233 -4.78528,13.40633 l -0.61462,1.68 11.75549,-0.002 11.75552,-0.002 3.68,-10.87538 3.68,-10.87554 19.36,0.001 19.36,0.001 2.92909,8.55645 c 1.61097,4.70605 3.25932,9.60045 3.66297,10.87645 l 0.73392,2.32 h 12.09699 c 6.65338,0 12.09703,-0.0567 12.09703,-0.12591 0,-0.60202 -11.22378,-31.64909 -15.16679,-41.95409 l -2.69369,-7.04 16.29024,-0.0829 16.29024,-0.0829 v -0.9571 -0.95709 l -16.72,-0.002 -16.72,-0.002 -1.40995,-3.59797 c -4.15056,-10.5916 -12.85687,-30.79033 -18.068,-41.91812 l -1.46109,-3.12 h -10.84711 -10.84713 l -2.80896,6 c -4.81226,10.27902 -11.36317,25.60461 -17.09799,40 l -1.05171,2.64001 H 478.68405 463.04002 V 149.44 125.12 h -11.36001 -11.36 v 24.32 24.32001 h -11.36 -11.36 V 149.44 125.12 h -11.36 -11.36 v 19.2 19.2 h -18.72 -18.72 v -19.2 -19.2 h -11.36 -11.36 v 24.32 24.32001 h -9.89757 -9.89759 l 0.78564,-1.93349 c 1.53974,-3.78933 2.0975,-6.85278 2.27903,-12.51749 0.35251,-10.99997 -1.96789,-18.06123 -7.88054,-23.98156 -5.39334,-5.40035 -13.04942,-8.6398 -24.66897,-10.43797 -2.99749,-0.46387 -5.69787,-0.56835 -14.56,-0.56333 -6.35966,0.004 -12.60837,0.17526 -15.04,0.41317 -4.61058,0.45109 -12.66277,1.56669 -13.42825,1.86044 -0.43616,0.16736 -0.49175,2.84406 -0.49175,23.67446 v 23.48577 h -9.23082 -9.23083 L 223.25487,170 c -0.71729,-13.25375 -5.70375,-25.09489 -14.12418,-33.54015 -6.39297,-6.41182 -13.92405,-10.36005 -23.85068,-12.50392 -4.60618,-0.9948 -13.29492,-1.36844 -18.11876,-0.77915 -11.34311,1.38569 -20.51124,5.55956 -27.99959,12.74707 -4.88566,4.68936 -8.26565,9.6279 -10.96285,16.01791 -2.38468,5.64961 -3.6374,11.31036 -4.20872,19.01824 l -0.20754,2.80001 -11.73127,-0.001 -11.73128,-10e-4 -1.439997,-0.97684 c -3.493513,-2.37004 -9.82392,-5.24331 -19.68,-8.93261 -8.218525,-3.07635 -10.815271,-4.35728 -13.139546,-6.48154 -1.98778,-1.81671 -2.849191,-3.72943 -2.849191,-6.32646 0,-5.30245 3.279939,-7.84924 11.176084,-8.67795 7.420323,-0.77876 15.229219,0.6084 22.770007,4.04485 1.361574,0.62049 2.578435,1.01677 2.704137,0.88063 0.248626,-0.26927 6.381486,-17.04966 6.379636,-17.45561 -0.004,-0.7855 -11.182586,-4.87703 -15.841127,-5.79787 -5.934119,-1.17298 -15.190337,-1.52408 -21.120001,-0.8011 -8.911674,1.08656 -16.15032,4.36162 -21.44,9.70035 -5.809828,5.8637 -8.125121,12.27738 -7.749322,21.4667 0.298733,7.30493 2.665702,12.58896 7.848042,17.52 l 1.933769,1.84001 H 36.936244 24.000001 v 0.96 0.96 h 14.232122 14.232122 l 2.967878,1.5767 c 3.606231,1.91583 6.595098,3.15682 14.327879,5.94898 13.30443,4.80398 17.39515,7.88419 17.840599,13.43354 0.323607,4.03145 -1.292966,7.21538 -4.492112,8.84746 -3.448595,1.75934 -9.651402,2.46162 -16.708487,1.89171 -7.423837,-0.59953 -13.845351,-2.26418 -19.654436,-5.09503 -1.129939,-0.55064 -2.098451,-0.95715 -2.152246,-0.90335 -0.219203,0.21921 -6.193319,17.27519 -6.193319,17.68181 0,0.96842 8.902826,4.53633 14.560001,5.83508 2.53127,0.58112 7.345875,1.38257 10.72,1.78448 0.616,0.0734 4.72,0.0939 9.12,0.0457 6.396164,-0.0701 8.739066,-0.22038 11.68649,-0.74939 z m 85.372778,-19.25136 c -5.63437,-0.70985 -9.78674,-2.76816 -13.91097,-6.8956 -2.61271,-2.61474 -3.12615,-3.33096 -4.71874,-6.58235 -3.19765,-6.52821 -4.4882,-14.24007 -3.74482,-22.37781 1.37757,-15.08029 8.44044,-24.73315 20.03527,-27.38229 3.61909,-0.82687 9.66561,-0.7525 13.10143,0.16115 10.41974,2.77083 17.02076,11.17004 18.92167,24.07613 0.64339,4.36823 0.46784,13.17624 -0.33392,16.75446 -3.13305,13.98255 -11.49316,21.7462 -24.08084,22.36278 -1.72059,0.0843 -4.09168,0.0319 -5.26908,-0.11647 z m 341.82075,-21.58428 c 0,-0.0759 1.95996,-5.29588 4.35548,-11.6 2.39552,-6.30412 5.54813,-14.60686 7.00577,-18.45053 l 2.65027,-6.98849 1.02192,2.66849 c 0.56208,1.46767 2.32217,5.98049 3.91136,10.02849 2.69133,6.85552 5.56573,14.47734 8.11577,21.52001 l 1.07178,2.96 h -14.06618 c -7.73638,0 -14.06617,-0.0621 -14.06617,-0.13797 z M 264.71671,158.16 l 0.0833,-14.32 4.16,-0.2619 c 4.9651,-0.3126 12.15466,0.1571 15.38457,1.00508 2.93143,0.76962 5.94119,2.39571 7.37805,3.98613 1.94687,2.15496 2.75829,4.36859 2.93326,8.00222 0.48801,10.13446 -4.3896,14.4265 -17.69588,15.57145 -2.112,0.18174 -5.74948,0.33191 -8.0833,0.33372 l -4.24329,0.003 z"
         id="path16" />
    </g>
  </g>
</svg>
