<?xml version="1.0" encoding="UTF-8" standalone="no"?>
<svg
   xmlns:dc="http://purl.org/dc/elements/1.1/"
   xmlns:cc="http://creativecommons.org/ns#"
   xmlns:rdf="http://www.w3.org/1999/02/22-rdf-syntax-ns#"
   xmlns:svg="http://www.w3.org/2000/svg"
   xmlns="http://www.w3.org/2000/svg"
   xmlns:sodipodi="http://sodipodi.sourceforge.net/DTD/sodipodi-0.dtd"
   xmlns:inkscape="http://www.inkscape.org/namespaces/inkscape"
   version="1.1"
   id="svg2"
   width="604.79999"
   height="110.93333"
   viewBox="0 0 604.79999 110.93333"
   sodipodi:docname="logo_sophia1.1.svg"
   inkscape:version="1.0.2 (e86c870879, 2021-01-15)">
  <metadata
     id="metadata8">
    <rdf:RDF>
      <cc:Work
         rdf:about="">
        <dc:format>image/svg+xml</dc:format>
        <dc:type
           rdf:resource="http://purl.org/dc/dcmitype/StillImage" />
        <dc:title></dc:title>
      </cc:Work>
    </rdf:RDF>
  </metadata>
  <defs
     id="defs6" />
  <sodipodi:namedview
     pagecolor="#ffffff"
     bordercolor="#666666"
     borderopacity="1"
     objecttolerance="10"
     gridtolerance="10"
     guidetolerance="10"
     inkscape:pageopacity="0"
     inkscape:pageshadow="2"
     inkscape:window-width="1920"
     inkscape:window-height="1016"
     id="namedview4"
     showgrid="false"
     inkscape:zoom="1.8215483"
     inkscape:cx="244.43911"
     inkscape:cy="44.464974"
     inkscape:window-x="0"
     inkscape:window-y="27"
     inkscape:window-maximized="1"
     inkscape:current-layer="g10" />
  <g
     inkscape:groupmode="layer"
     inkscape:label="Image"
     id="g10">
    <path
       style="fill:#fefaca;stroke-width:1.06667"
       d="m 30.212318,107.8004 c -4.209891,-1.13516 -9.102008,-2.81254 -10.87137,-3.72752 l -3.217022,-1.66358 2.618365,-7.698314 c 1.4401,-4.23407 2.994302,-8.074248 3.45378,-8.533727 0.45948,-0.459479 3.693332,0.199017 7.186339,1.463325 6.814132,2.466403 22.987401,3.844474 29.899932,2.547676 5.572445,-1.045398 8.984324,-4.841441 8.984324,-9.995929 0,-7.463137 -4.383366,-11.009347 -21.333333,-17.259 C 42.280059,61.217615 36.555568,58.83573 34.212244,57.640255 30.596913,55.795851 27.643207,55.431388 14.70916,55.233736 L -0.53333332,55.000807 13.569485,54.669655 27.672301,54.338503 24.067712,49.616233 C 19.097427,43.104806 17.780215,38.448748 18.363763,29.454004 18.933458,20.672779 20.825519,16.458945 26.803685,10.657331 34.002853,3.6707766 40.800187,1.640618 57.066666,1.6186916 c 11.93309,-0.016085 14.833454,0.332411 20.799999,2.4992443 3.813334,1.3848648 7.320533,2.8760637 7.793775,3.3137753 0.473244,0.4377117 -0.459845,4.6241668 -2.07353,9.3032348 l -2.933974,8.507395 -7.439651,-2.587256 c -6.180336,-2.149309 -9.019899,-2.525288 -16.775269,-2.221171 -8.131883,0.318882 -9.690355,0.699516 -12.086817,2.95202 -2.117348,1.990159 -2.7512,3.627129 -2.7512,7.10518 0,6.061603 3.003061,8.475854 17.763175,14.280363 6.363588,2.502521 13.738783,5.708364 16.389324,7.124097 4.468059,2.386523 5.789188,2.552094 18.133333,2.272575 L 107.2,53.866665 107.94433,47.11803 c 1.46209,-13.256338 6.7975,-24.222302 15.87351,-32.625092 10.23695,-9.4776071 20.81766,-13.3922275 36.25522,-13.4136112 27.79569,-0.038502 48.19461,18.0452942 50.89533,45.1190982 l 0.76494,7.66824 10.4,0.305293 10.4,0.305293 V 29.456859 4.436467 l 7.2,-0.8849002 C 251.10807,2.1535789 278.15582,2.5178384 284.8,4.158492 c 14.14695,3.4933238 23.14489,10.644417 26.15736,20.788516 1.98828,6.695263 2.02545,18.020419 0.0803,24.483464 l -1.49556,4.969526 h 11.0956 11.09561 V 28.799999 3.1999999 h 11.17646 11.17647 l 0.29019,19.9999991 0.29021,20 20.53333,0.289699 20.53334,0.289699 V 23.489698 3.1999999 h 11.73333 11.73333 V 28.799999 54.399998 h 12.26667 12.26667 V 28.799999 3.1999999 h 11.73333 11.73333 V 28.799999 54.399998 h 17.48806 17.48805 l 3.87286,-9.676265 c 2.13007,-5.321946 7.03721,-16.85761 10.90475,-25.634808 l 7.03189,-15.9585403 11.32893,0.3014742 11.32894,0.3014743 5.22913,11.7333328 c 2.87603,6.453333 7.7229,17.733333 10.77084,25.066666 l 5.54169,13.333333 18.57409,0.533333 18.5741,0.533334 -17.58122,0.870111 c -9.66967,0.478562 -17.70459,0.993479 -17.85537,1.144261 -0.15079,0.150783 3.80076,11.386365 8.78122,24.967961 4.98045,13.581596 9.05537,25.202405 9.05537,25.824005 0,0.74643 -4.05109,1.02778 -11.93045,0.82859 l -11.93046,-0.3016 -3.76655,-11.466663 -3.76655,-11.466666 H 534.9333 513.52732 l -3.76655,11.466666 -3.76655,11.466663 -11.90817,0.3014 -11.90817,0.30139 5.20128,-14.701393 c 2.86071,-8.085766 7.10151,-19.741393 9.42399,-25.901392 l 4.22271,-11.2 -4.91294,-0.706554 c -2.70212,-0.388604 -10.31295,-0.748604 -16.91295,-0.8 l -12,-0.09345 V 82.133331 108.8 H 455.46666 443.73333 V 82.133331 55.466665 H 431.46666 419.19999 V 82.133331 108.8 H 407.46666 395.73333 V 85.843632 62.887266 l -20.53334,0.2897 -20.53333,0.289699 -0.28788,22.666666 L 354.0909,108.8 H 342.91211 331.73333 V 82.133331 55.466665 h -11.36434 -11.36434 l -3.45704,4.038766 c -6.90839,8.070898 -21.86966,12.975945 -39.68095,13.009379 L 256,72.533331 V 90.666664 108.8 H 244.26666 232.53333 V 82.094705 55.389413 l -10.4,0.305293 -10.4,0.305292 -0.67534,8 c -1.11478,13.205471 -6.55429,24.794259 -15.61668,33.27106 -9.5414,8.924852 -20.03441,12.595602 -36.00515,12.595602 -21.49965,0 -37.71027,-9.44894 -46.36243,-27.023996 -2.85302,-5.795305 -4.14951,-10.955907 -6.0067,-23.909332 L 106.57,55.466665 H 94.884998 c -6.42675,0 -11.684999,0.421227 -11.684999,0.936059 0,0.514833 0.796385,1.594833 1.769745,2.4 3.72271,3.079443 6.74226,11.786653 6.753168,19.473519 0.01504,10.595418 -1.700189,15.23449 -7.962493,21.535708 -7.627959,7.675359 -12.494131,9.195089 -30.96042,9.669079 -12.276419,0.31511 -16.295181,0.0161 -22.587681,-1.68063 z M 172.79015,87.122236 c 9.63701,-4.906317 15.29464,-16.615989 15.29464,-31.655571 0,-21.786657 -10.36028,-34.131289 -28.61813,-34.099486 -9.38128,0.01634 -14.64602,2.2947 -20.39529,8.826209 C 133.37426,36.66565 131.2,43.68793 131.2,55.615803 c 0,18.518131 7.4247,30.569467 20.89524,33.915932 5.98113,1.485881 15.13759,0.419798 20.69491,-2.409499 z M 550.39999,66.833651 c 0,-3.170925 -15.1456,-40.381388 -16.06288,-39.4641 -0.96813,0.968124 -14.87045,37.328702 -14.87045,38.892639 0,0.515794 6.96,0.937808 15.46666,0.937808 8.50667,0 15.46667,-0.164855 15.46667,-0.366347 z M 278.00235,51.752601 c 2.9276,-0.869401 6.49472,-2.828072 7.92694,-4.352601 2.23688,-2.381055 2.60404,-3.800391 2.60404,-10.066668 0,-6.266277 -0.36716,-7.685612 -2.60404,-10.066667 -3.50976,-3.735972 -11.50527,-5.933332 -21.58956,-5.933332 H 256 v 15.999999 16 h 8.33973 c 4.58685,0 10.73503,-0.711329 13.66262,-1.580731 z"
       id="path16" />
    <path
       style="fill:#fefdfa;stroke-width:1.06667"
       d="m 231.92912,82.666664 c -6.5e-4,-14.666666 0.14957,-20.814609 0.33384,-13.662095 0.18427,7.152512 0.1848,19.152512 0.001,26.666665 -0.1835,7.514156 -0.33426,1.662096 -0.33491,-13.00457 z m 24.50733,8.533333 c -10e-4,-9.973333 0.15911,-14.196901 0.35628,-9.385706 0.19719,4.811194 0.19819,12.971194 0.002,18.133333 -0.19595,5.162136 -0.35728,1.225706 -0.35851,-8.747627 z M 48.281333,89.901244 c 1.621399,-0.245178 4.021399,-0.238626 5.333333,0.01456 1.311933,0.253186 -0.01467,0.453786 -2.948,0.445778 -2.933333,-0.008 -4.006734,-0.21516 -2.385333,-0.460338 z M 256.46741,51.946184 c -0.29277,-0.762932 -0.38252,-7.842932 -0.19946,-15.733333 l 0.33286,-14.346185 0.23292,15.129149 0.23293,15.129149 2.93334,0.444363 2.93333,0.444363 -2.96681,0.159821 c -1.63175,0.0879 -3.20634,-0.464396 -3.49911,-1.227327 z m -24.83233,-2.879519 c 0,-1.466666 0.24211,-2.066666 0.53801,-1.333333 0.29591,0.733333 0.29591,1.933333 0,2.666666 -0.2959,0.733334 -0.53801,0.133334 -0.53801,-1.333333 z m 0,-6.4 c 0,-1.466666 0.24211,-2.066666 0.53801,-1.333333 0.29591,0.733333 0.29591,1.933333 0,2.666667 -0.2959,0.733333 -0.53801,0.133333 -0.53801,-1.333334 z m 133.48698,0.270797 c 5.75048,-0.192162 14.87048,-0.191324 20.26667,0.0018 5.39619,0.193187 0.69126,0.35041 -10.4554,0.349385 -11.14667,-10e-4 -15.56174,-0.159087 -9.81127,-0.351249 z M 288.08421,36.71111 c 0.0512,-1.242605 0.30393,-1.49536 0.64444,-0.644444 0.30812,0.77 0.27024,1.69 -0.0842,2.044444 -0.35445,0.354444 -0.60655,-0.275556 -0.56024,-1.4 z M 25.066666,10.666666 c 1.061852,-1.173333 2.17064,-2.1333329 2.463974,-2.1333329 0.293333,0 -0.335455,0.9599999 -1.397307,2.1333329 C 25.071481,11.84 23.962693,12.8 23.66936,12.8 c -0.293334,0 0.335455,-0.96 1.397306,-2.133334 z M 258.4,1.3563003 c 2.2,-0.2301271 5.8,-0.2301271 8,0 2.2,0.2301272 0.4,0.418413 -4,0.418413 -4.4,0 -6.2,-0.1882858 -4,-0.418413 z M 166.2,0.33801168 c 0.76999,-0.30812864 1.68999,-0.2702339 2.04445,0.0842106 0.35444,0.35444444 -0.27557,0.60654962 -1.4,0.5602339 -1.24262,-0.0511829 -1.49536,-0.30393635 -0.64445,-0.6444445 z"
       id="path28" />
    <path
       style="fill:#fefdf3;stroke-width:1.06667"
       d="m 331.12911,82.666664 c -6.5e-4,-14.666666 0.14958,-20.814609 0.33385,-13.662095 0.18427,7.152512 0.1848,19.152512 10e-4,26.666665 -0.1835,7.514156 -0.33426,1.662096 -0.33492,-13.00457 z m 193.46095,2.937101 c 6.04454,-0.190475 15.64454,-0.189702 21.33333,0.0017 5.6888,0.191417 0.74327,0.34726 -10.99007,0.346317 -11.73333,-9.43e-4 -16.38779,-0.157558 -10.34326,-0.348033 z M 91.901753,74.666664 c 0,-1.466666 0.242105,-2.066666 0.538012,-1.333333 0.295906,0.733333 0.295906,1.933333 0,2.666667 -0.295907,0.733333 -0.538012,0.133333 -0.538012,-1.333334 z M 269.66666,72.871343 c 0.77,-0.308129 1.69,-0.270234 2.04445,0.08421 0.35444,0.354445 -0.27556,0.606551 -1.4,0.560235 -1.24261,-0.05118 -1.49536,-0.303937 -0.64445,-0.644445 z M 24.96532,51.999998 l -2.031987,-2.399999 2.4,2.031987 c 2.255408,1.909565 2.88559,2.768012 2.031987,2.768012 -0.202407,0 -1.282407,-1.08 -2.4,-2.4 z M 263.2,52.626899 c 0.73333,-0.295906 1.93333,-0.295906 2.66666,0 0.73334,0.295907 0.13334,0.538011 -1.33333,0.538011 -1.46667,0 -2.06667,-0.242104 -1.33333,-0.538011 z m 67.92666,-24.360233 c 7.1e-4,-14.08 0.15248,-19.6924722 0.33729,-12.472161 0.18481,7.22031 0.18425,18.74031 -0.001,25.599999 -0.18571,6.859689 -0.33692,0.952161 -0.33623,-13.127838 z m -18.50912,13.777778 c 0.0512,-1.242606 0.30394,-1.49536 0.64444,-0.644445 0.30813,0.77 0.27024,1.69 -0.0842,2.044444 -0.35444,0.354444 -0.60655,-0.275556 -0.56024,-1.399999 z M 55.747999,20.567913 c 1.6214,-0.245179 4.021399,-0.238626 5.333333,0.01456 1.311933,0.253186 -0.01467,0.453786 -2.948,0.445778 -2.933333,-0.008 -4.006733,-0.21516 -2.385333,-0.460338 z M 153.4,0.33801168 c 0.76999,-0.30812864 1.68999,-0.2702339 2.04445,0.0842106 0.35444,0.35444444 -0.27557,0.60654962 -1.4,0.5602339 -1.24262,-0.0511829 -1.49536,-0.30393635 -0.64445,-0.6444445 z m 7.95363,-0.0105355 c 1.03783,-0.27044629 2.47783,-0.25266038 3.2,0.0395243 0.72216,0.29218463 -0.12697,0.51345887 -1.88697,0.49172054 -1.76,-0.0217383 -2.35087,-0.26079849 -1.31303,-0.53124484 z"
       id="path26" />
    <path
       style="fill:#fefcec;stroke-width:1.06667"
       d="m 57.399999,110.20468 c 0.77,-0.30813 1.69,-0.27024 2.044445,0.0842 0.354444,0.35445 -0.275556,0.60655 -1.4,0.56023 -1.242606,-0.0512 -1.49536,-0.30393 -0.644445,-0.64443 z M 467.66245,82.666664 c -6.6e-4,-14.666666 0.14957,-20.814609 0.33384,-13.662095 0.18427,7.152512 0.1848,19.152512 0.001,26.666665 -0.1835,7.514156 -0.33426,1.662096 -0.33491,-13.00457 z M 91.901753,78.933331 c 0,-1.466667 0.242105,-2.066667 0.538012,-1.333333 0.295906,0.733333 0.295906,1.933333 0,2.666666 -0.295907,0.733334 -0.538012,0.133334 -0.538012,-1.333333 z M 266.46666,72.871343 c 0.77,-0.308129 1.69,-0.270234 2.04445,0.08421 0.35444,0.354445 -0.27556,0.606551 -1.4,0.560235 -1.24261,-0.05118 -1.49536,-0.303937 -0.64445,-0.644445 z M 529.37769,66.408 c 3.98439,-0.20579 10.22439,-0.204263 13.86666,0.0034 3.64226,0.207656 0.38231,0.376029 -7.24436,0.374164 -7.62667,-0.0018 -10.60671,-0.171767 -6.6223,-0.377556 z M 467.66126,28.799999 c 0,-14.373333 0.15099,-20.2533326 0.33553,-13.066666 0.18455,7.186666 0.18455,18.946666 0,26.133332 -0.18454,7.186667 -0.33553,1.306667 -0.33553,-13.066666 z M 267.53333,52.604677 c 0.76999,-0.308129 1.68999,-0.270234 2.04445,0.08421 0.35444,0.354445 -0.27557,0.606551 -1.4,0.560235 -1.24262,-0.05118 -1.49536,-0.303937 -0.64445,-0.644445 z M 196.1306,14.133333 c -1.3268,-1.691793 -1.28907,-1.729521 0.40273,-0.402725 1.7768,1.39346 2.34185,2.269392 1.46394,2.269392 -0.2215,0 -1.0615,-0.84 -1.86667,-1.866667 z M 537.86666,2.4359952 c 1.61333,-0.2443996 4.25333,-0.2443996 5.86666,0 1.61334,0.2443996 0.29334,0.4443629 -2.93333,0.4443629 -3.22667,0 -4.54667,-0.1999633 -2.93333,-0.4443629 z"
       id="path24" />
    <path
       style="fill:#fefce4;stroke-width:1.06667"
       d="m 43.999999,110.19804 c 1.026667,-0.26828 2.706667,-0.26828 3.733334,0 1.026666,0.2683 0.186666,0.48782 -1.866667,0.48782 -2.053333,0 -2.893333,-0.21952 -1.866667,-0.48782 z m 9.066667,0.0289 c 0.733333,-0.2959 1.933333,-0.2959 2.666666,0 0.733334,0.29591 0.133334,0.53802 -1.333333,0.53802 -1.466667,0 -2.066667,-0.24211 -1.333333,-0.53802 z m 108.866664,-0.0222 c 0.77,-0.30812 1.69,-0.27024 2.04445,0.0842 0.35444,0.35446 -0.27556,0.60655 -1.4,0.56024 -1.24261,-0.0512 -1.49536,-0.30394 -0.64445,-0.64444 z M 263.26666,72.871428 c 0.77,-0.308129 1.69,-0.270233 2.04445,0.08421 0.35444,0.354444 -0.27556,0.60655 -1.4,0.560234 -1.24261,-0.05118 -1.49536,-0.303937 -0.64445,-0.644445 z m 49.43508,-36.604762 c 0,-1.466667 0.24212,-2.066667 0.53802,-1.333334 0.2959,0.733334 0.2959,1.933334 0,2.666667 -0.2959,0.733333 -0.53802,0.133333 -0.53802,-1.333333 z M 261.6,21.635995 c 1.61333,-0.2444 4.25333,-0.2444 5.86666,0 1.61334,0.244399 0.29334,0.444363 -2.93333,0.444363 -3.22667,0 -4.54667,-0.199964 -2.93333,-0.444363 z M 337.37227,2.4105836 c 3.39475,-0.2123198 8.67475,-0.2103508 11.73333,0.00437 3.05859,0.2147264 0.28106,0.3884427 -6.17227,0.3860361 -6.45334,-0.00241 -8.95581,-0.1780919 -5.56106,-0.3904117 z m 63.96106,0.00116 c 3.37333,-0.2116808 8.89333,-0.2116808 12.26666,0 3.37334,0.2116806 0.61334,0.384874 -6.13333,0.384874 -6.74667,0 -9.50667,-0.1731934 -6.13333,-0.384874 z m 49.10561,-0.00116 c 3.39475,-0.2123198 8.67475,-0.2103508 11.73333,0.00437 3.05858,0.2147264 0.28106,0.3884427 -6.17228,0.3860361 -6.45333,-0.00241 -8.95581,-0.1780919 -5.56105,-0.3904117 z m 76.76105,0.025412 c 1.61333,-0.2443996 4.25333,-0.2443996 5.86667,0 1.61333,0.2443996 0.29333,0.4443629 -2.93334,0.4443629 -3.22666,0 -4.54666,-0.1999633 -2.93333,-0.4443629 z"
       id="path22" />
    <path
       style="fill:#fefcdb;stroke-width:1.06667"
       d="m 49.933333,110.20468 c 0.769999,-0.30813 1.689999,-0.27024 2.044444,0.0842 0.354444,0.35445 -0.275556,0.60655 -1.4,0.56023 -1.242606,-0.0512 -1.49536,-0.30393 -0.644444,-0.64443 z m 108.799997,0 c 0.77,-0.30813 1.69,-0.27024 2.04445,0.0842 0.35444,0.35445 -0.27556,0.60655 -1.4,0.56023 -1.24261,-0.0512 -1.49536,-0.30393 -0.64445,-0.64443 z M 260.06666,72.871343 c 0.77,-0.308129 1.69,-0.270234 2.04445,0.08421 0.35444,0.354445 -0.27556,0.606551 -1.4,0.560235 -1.24261,-0.05118 -1.49536,-0.303937 -0.64445,-0.644445 z M 83.728676,57.592464 c -1.105349,-1.788492 1.817256,-2.227745 12.351341,-1.856342 l 10.053313,0.354453 -10.996283,0.221379 c -7.006895,0.141063 -10.757118,0.608358 -10.337048,1.288044 0.36258,0.586667 0.419236,1.066667 0.125903,1.066667 -0.293334,0 -0.832086,-0.48339 -1.197226,-1.074201 z M 7.1999999,55.741324 c 4.2533331,-0.202465 11.2133331,-0.202465 15.4666661,0 4.253334,0.202466 0.773334,0.368121 -7.733333,0.368121 -8.5066664,0 -11.9866664,-0.165655 -7.7333331,-0.368121 z m 210.6988401,0.0066 c 2.80438,-0.220455 7.12438,-0.217796 9.6,0.0059 2.47564,0.223706 0.18116,0.404078 -5.09884,0.400828 -5.28,-0.0032 -7.30552,-0.186283 -4.50116,-0.406738 z m 96.50115,-10e-4 c 3.08,-0.215469 8.12,-0.215469 11.2,0 3.08,0.21547 0.56,0.391762 -5.6,0.391762 -6.16,0 -8.68,-0.176292 -5.6,-0.391762 z m 111.46667,-0.0018 c 3.37333,-0.211682 8.89333,-0.211682 12.26667,0 3.37333,0.21168 0.61333,0.384873 -6.13334,0.384873 -6.74666,0 -9.50666,-0.173193 -6.13333,-0.384873 z m 46.96551,0.0029 c 2.80438,-0.220455 7.12438,-0.217796 9.6,0.0059 2.47564,0.223706 0.18116,0.404078 -5.09884,0.400828 -5.28,-0.0032 -7.30552,-0.186283 -4.50116,-0.406738 z m 127.98812,0.04616 c 1.03783,-0.270446 2.47783,-0.25266 3.2,0.03952 0.72216,0.292184 -0.12697,0.513459 -1.88697,0.49172 -1.76,-0.02174 -2.35087,-0.260797 -1.31303,-0.531244 z M 119.46666,17.730607 c 0,-0.221499 0.84,-1.061499 1.86667,-1.866666 1.6918,-1.326796 1.72953,-1.289068 0.40273,0.402725 -1.39346,1.776798 -2.2694,2.341844 -2.2694,1.463941 z"
       id="path20" />
    <path
       style="fill:#fefbd3;stroke-width:1.06667"
       d="m 354.63406,86.134012 0.0326,-22.667347 20.53414,-0.03548 20.53415,-0.03548 -20.24634,0.325106 -20.24632,0.325107 -0.32041,22.377722 -0.32041,22.37773 0.0326,-22.667354 z m -197.02163,3.77824 c 1.32684,-0.255139 3.24684,-0.245453 4.26667,0.02153 1.01983,0.266978 -0.0658,0.475729 -2.41244,0.46389 -2.34666,-0.01184 -3.18106,-0.230278 -1.85423,-0.485416 z m 99.25423,-17.040909 c 0.77,-0.308129 1.69,-0.270234 2.04445,0.08421 0.35444,0.354445 -0.27556,0.606551 -1.4,0.560235 -1.24261,-0.05118 -1.49536,-0.303937 -0.64445,-0.644445 z M 211.2,59.26295 c 0,-1.432044 0.39315,-2.846694 0.87366,-3.143666 0.48051,-0.296974 0.66603,0.874698 0.41227,2.603715 C 211.92642,62.535146 211.2,62.840166 211.2,59.26295 Z m -23.2192,-3.796285 c 0,-2.053333 0.21952,-2.893333 0.48782,-1.866667 0.26828,1.026667 0.26828,2.706667 0,3.733334 -0.2683,1.026666 -0.48782,0.186666 -0.48782,-1.866667 z m 299.75253,0.331386 c 1.02666,-0.268296 2.70666,-0.268296 3.73333,0 1.02667,0.268296 0.18667,0.487811 -1.86667,0.487811 -2.05333,0 -2.89333,-0.219515 -1.86666,-0.487811 z m 100.26666,-0.04175 c 2.2,-0.230128 5.8,-0.230128 8,0 2.2,0.230127 0.4,0.418413 -4,0.418413 -4.4,0 -6.2,-0.188286 -4,-0.418413 z M 211.28421,51.644443 c 0.0512,-1.242606 0.30394,-1.49536 0.64444,-0.644445 0.30813,0.77 0.27024,1.69 -0.0842,2.044445 -0.35446,0.354444 -0.60655,-0.275556 -0.56024,-1.4 z m 143.29374,-28.71111 c 0.001,-11.146667 0.15909,-15.5617348 0.35125,-9.811263 0.19216,5.750472 0.19132,14.870472 -0.002,20.266666 -0.19292,5.396195 -0.35015,0.691263 -0.34912,-10.455403 z M 271.8,21.671344 c 0.76999,-0.308129 1.69,-0.270233 2.04444,0.08421 0.35445,0.354445 -0.27556,0.60655 -1.4,0.560234 -1.24261,-0.05118 -1.49536,-0.303937 -0.64444,-0.644444 z"
       id="path18" />
  </g>
</svg>
