<?xml version="1.0" encoding="UTF-8" standalone="no"?>
<!-- Created with Inkscape (http://www.inkscape.org/) -->

<svg
   xmlns:dc="http://purl.org/dc/elements/1.1/"
   xmlns:cc="http://creativecommons.org/ns#"
   xmlns:rdf="http://www.w3.org/1999/02/22-rdf-syntax-ns#"
   xmlns:svg="http://www.w3.org/2000/svg"
   xmlns="http://www.w3.org/2000/svg"
   xmlns:sodipodi="http://sodipodi.sourceforge.net/DTD/sodipodi-0.dtd"
   xmlns:inkscape="http://www.inkscape.org/namespaces/inkscape"
   version="1.1"
   id="svg2"
   width="37.333332"
   height="37.333332"
   viewBox="0 0 37.333332 37.333332"
   sodipodi:docname="plusIcon.svg"
   inkscape:version="0.92.5 (2060ec1f9f, 2020-04-08)">
  <metadata
     id="metadata8">
    <rdf:RDF>
      <cc:Work
         rdf:about="">
        <dc:format>image/svg+xml</dc:format>
        <dc:type
           rdf:resource="http://purl.org/dc/dcmitype/StillImage" />
        <dc:title></dc:title>
      </cc:Work>
    </rdf:RDF>
  </metadata>
  <defs
     id="defs6" />
  <sodipodi:namedview
     pagecolor="#ffffff"
     bordercolor="#666666"
     borderopacity="1"
     objecttolerance="10"
     gridtolerance="10"
     guidetolerance="10"
     inkscape:pageopacity="0"
     inkscape:pageshadow="2"
     inkscape:window-width="1920"
     inkscape:window-height="1016"
     id="namedview4"
     showgrid="false"
     inkscape:zoom="17.879701"
     inkscape:cx="17.107815"
     inkscape:cy="19.156479"
     inkscape:window-x="0"
     inkscape:window-y="27"
     inkscape:window-maximized="1"
     inkscape:current-layer="svg2" />
  <path
     style="fill:#ccc591;stroke-width:1.33333325"
     d="M 10.350094,32.579482 C 0.17158522,27.056682 0.338424,10.007608 10.623022,4.6892357 21.829286,-1.1057487 34.666665,6.3570792 34.666665,18.666666 c 0,12.328465 -13.257151,19.913593 -24.316571,13.912816 z M 21.08199,24.310886 c 0.252351,-1.709533 1.560344,-2.976545 3.333333,-3.228896 1.604905,-0.228428 2.918009,-1.315324 2.918009,-2.415324 0,-1.1 -1.313104,-2.186896 -2.918009,-2.415324 -1.817877,-0.25874 -3.074593,-1.515456 -3.333333,-3.333333 -0.539355,-3.7894316 -4.291293,-3.7894316 -4.830648,0 -0.25874,1.817877 -1.515456,3.074593 -3.333333,3.333333 C 9.0849838,16.796901 9.1484713,20.54573 13,21.092734 c 1.816141,0.257933 3,1.354099 3,2.777777 0,4.938789 4.362161,5.316787 5.08199,0.440375 z"
     id="path18"
     inkscape:connector-curvature="0" />
</svg>
